<?xml version="1.0" standalone="no"?>
<!DOCTYPE svg PUBLIC "-//W3C//DTD SVG 1.1//EN" "http://www.w3.org/Graphics/SVG/1.1/DTD/svg11.dtd" >
<svg xmlns="http://www.w3.org/2000/svg">
<metadata>Generated by IcoMoon</metadata>
<defs>
<font id="znode-web-store" horiz-adv-x="1024">
<font-face units-per-em="1024" ascent="960" descent="-64" />
<missing-glyph horiz-adv-x="1024" />
<glyph unicode="&#x20;" horiz-adv-x="512" d="" />
<glyph unicode="&#xe600;" glyph-name="cart" d="M1016.32 740.937c-6.4 8.96-16.64 14.080-26.88 14.080h-633.6c-17.92 0-33.28-14.080-33.28-33.28 0-17.92 14.080-33.28 33.28-33.28h590.080l-24.32-72.96h-494.080c-17.92 0-33.28-14.080-33.28-33.28 0-17.92 14.080-33.28 33.28-33.28h472.32l-26.88-84.48h-407.040c-17.92 0-33.28-14.080-33.28-33.28 0-17.92 14.080-33.28 33.28-33.28h386.56l-23.040-71.68h-433.92l-177.92 515.84c-2.56 8.96-10.24 16.64-19.2 19.2l-153.6 60.16c-16.64 7.68-35.84-1.28-42.24-17.92s1.28-35.84 17.92-42.24l139.52-55.040 170.24-490.24c-7.68-2.56-14.080-8.96-16.64-16.64l-48.64-136.96c-2.56-8.96-1.28-17.92 3.84-25.6s14.080-11.52 21.76-11.52h25.6c-15.36-17.92-25.6-40.96-25.6-65.28 0-53.76 44.8-98.56 98.56-98.56s98.56 43.52 98.56 98.56c0 25.6-10.24 48.64-25.6 65.28h215.040c-15.36-17.92-25.6-40.96-25.6-65.28 0-53.76 43.52-98.56 98.56-98.56 53.76 0 98.56 43.52 98.56 98.56 0 25.6-10.24 48.64-25.6 65.28h30.72c15.36 0 26.88 12.8 26.88 26.88 0 15.36-12.8 26.88-26.88 26.88h-524.8l30.72 84.48c3.84-1.28 7.68-2.56 12.8-2.56h481.28c14.080 0 26.88 8.96 30.72 23.040l136.96 426.24c2.56 11.52 1.28 23.040-5.12 30.72v0zM387.84 16.457c-24.32 0-43.52 19.2-43.52 43.52s19.2 43.52 43.52 43.52c24.32 0 43.52-19.2 43.52-43.52 1.28-24.32-19.2-43.52-43.52-43.52v0zM748.8 16.457c-24.32 0-43.52 19.2-43.52 43.52s19.2 43.52 43.52 43.52c24.32 0 43.52-19.2 43.52-43.52 1.28-24.32-19.2-43.52-43.52-43.52v0z" />
<glyph unicode="&#xe601;" glyph-name="checkout" d="M472.32 950.857v-293.12h-472.32v-437.76h472.32v-293.12l551.68 512z" />
<glyph unicode="&#xe602;" glyph-name="close" d="M1024 131.657l-307.2 307.2 307.2 307.2-204.8 204.8-307.2-307.2-307.2 307.2-204.8-204.8 307.2-307.2-307.2-307.2 204.8-204.8 307.2 307.2 307.2-307.2 204.8 204.8z" />
<glyph unicode="&#xe603;" glyph-name="compare" d="M844.8 438.857v-145.92c0-39.68-33.28-72.96-72.96-72.96h-445.44v145.92l-293.12-220.16 293.12-218.88v145.92h445.44c121.6 0 218.88 98.56 218.88 218.88v0 145.92h-145.92zM179.2 438.857v145.92c0 39.68 33.28 72.96 72.96 72.96h445.44v-145.92l291.84 218.88-291.84 220.16v-145.92h-444.16c-121.6 0-218.88-98.56-218.88-218.88v0-145.92h144.64z" />
<glyph unicode="&#xe604;" glyph-name="home-icon" d="M977.92 575.817c0 11.52-3.84 20.48-12.8 26.88l-440.32 340.48c-12.8 10.24-26.88 10.24-42.24 0l-424.96-340.48c-7.68-6.4-11.52-15.36-11.52-26.88v-614.4c0-10.24 2.56-17.92 8.96-24.32 6.4-7.68 14.080-10.24 23.040-10.24h252.16c10.24 0 17.92 2.56 24.32 8.96s8.96 14.080 8.96 24.32v377.6h290.56v-377.6c0-10.24 2.56-17.92 8.96-24.32s14.080-8.96 24.32-8.96h252.16c10.24 0 17.92 2.56 24.32 8.96s8.96 14.080 8.96 24.32v615.68z" />
<glyph unicode="&#xe605;" glyph-name="login" d="M512 405.577c151.040 0 206.080 152.32 220.16 276.48 17.92 153.6-55.040 268.8-220.16 268.8s-238.080-115.2-220.16-268.8c14.080-125.44 69.12-276.48 220.16-276.48v0zM921.6 44.617c-1.28 48.64-7.68 97.28-15.36 144.64-10.24 57.6-23.040 142.080-74.24 179.2-29.44 21.76-66.56 29.44-99.84 42.24-16.64 6.4-30.72 12.8-44.8 20.48-46.080-49.92-106.24-76.8-175.36-76.8-70.4 0-130.56 26.88-175.36 76.8-14.080-7.68-28.16-14.080-44.8-20.48-33.28-12.8-71.68-20.48-99.84-42.24-49.92-37.12-64-121.6-72.96-179.2-10.24-48.64-15.36-97.28-16.64-144.64-1.28-37.12 16.64-42.24 48.64-53.76 39.68-14.080 79.36-24.32 120.32-33.28 78.080-17.92 160-30.72 240.64-30.72s162.56 12.8 240.64 29.44c40.96 8.96 81.92 19.2 120.32 33.28 32 11.52 49.92 16.64 48.64 55.040v0z" />
<glyph unicode="&#xe606;" glyph-name="quick-order" d="M529.92 437.577v212.48h-47.36v-211.2c-24.32-8.96-40.96-33.28-40.96-60.16 0-28.16 16.64-51.2 40.96-60.16v-52.48h47.36v52.48c24.32 8.96 40.96 33.28 40.96 60.16 0 25.6-16.64 49.92-40.96 58.88v0zM866.56 680.777l26.88-26.88 75.52 75.52-111.36 110.080-75.52-75.52 26.88-26.88-15.36-14.080c-67.84 56.32-153.6 93.44-247.040 102.4v19.2h37.12v106.24h-156.16v-106.24h37.12v-19.2c-229.12-20.48-409.6-213.76-409.6-448 1.28-248.32 202.24-450.56 450.56-450.56s450.56 202.24 450.56 450.56c0 110.080-39.68 209.92-104.96 288l15.36 15.36zM505.6 52.297c-179.2 0-325.12 145.92-325.12 325.12s145.92 325.12 325.12 325.12c179.2 0 325.12-145.92 325.12-325.12s-145.92-325.12-325.12-325.12v0z" />
<glyph unicode="&#xe607;" glyph-name="search" d="M998.4 72.777l-221.44 222.72c-1.28 1.28-2.56 2.56-3.84 2.56 43.52 66.56 69.12 145.92 69.12 231.68 0 232.96-188.16 421.12-421.12 421.12s-421.12-188.16-421.12-421.12c0-232.96 188.16-421.12 421.12-421.12 85.76 0 165.12 25.6 231.68 69.12 1.28-1.28 1.28-2.56 2.56-3.84l222.72-221.44c33.28-33.28 87.040-33.28 121.6 0 33.28 33.28 33.28 87.040-1.28 120.32v0zM421.12 254.537c-152.32 0-275.2 122.88-275.2 275.2s122.88 275.2 275.2 275.2 275.2-122.88 275.2-275.2c0-152.32-122.88-275.2-275.2-275.2v0z" />
<glyph unicode="&#xe608;" glyph-name="share" d="M787.2 321.097c-69.12 0-130.56-35.84-165.12-90.88l-211.2 120.32c12.8 26.88 21.76 56.32 21.76 88.32 0 19.2-3.84 38.4-8.96 56.32l218.88 125.44c35.84-38.4 87.040-64 144.64-64 108.8 0 197.12 88.32 197.12 197.12s-88.32 197.12-197.12 197.12-195.84-88.32-195.84-197.12c0-19.2 3.84-38.4 8.96-56.32l-218.88-125.44c-35.84 38.4-87.040 64-144.64 64-108.8 0-197.12-88.32-197.12-197.12s88.32-197.12 197.12-197.12c44.8 0 85.76 15.36 119.040 40.96l-1.28-1.28 238.080-135.68c-1.28-7.68-2.56-14.080-2.56-21.76 1.28-108.8 88.32-197.12 197.12-197.12s197.12 88.32 197.12 197.12-88.32 197.12-197.12 197.12v0zM787.2 871.497c65.28 0 117.76-52.48 117.76-117.76s-52.48-117.76-117.76-117.76-117.76 52.48-117.76 117.76c0 65.28 52.48 117.76 117.76 117.76v0zM236.8 321.097c-65.28 0-117.76 52.48-117.76 117.76s52.48 117.76 117.76 117.76 117.76-52.48 117.76-117.76-52.48-117.76-117.76-117.76v0zM787.2 6.217c-65.28 0-117.76 52.48-117.76 117.76s52.48 117.76 117.76 117.76 117.76-52.48 117.76-117.76c1.28-65.28-52.48-117.76-117.76-117.76v0z" />
<glyph unicode="&#xe609;" glyph-name="shipping" d="M378.88 322.377c-47.36 0-85.76-38.4-85.76-85.76s38.4-85.76 85.76-85.76c47.36 0 85.76 38.4 85.76 85.76s-38.4 85.76-85.76 85.76v0zM378.88 194.377c-23.040 0-42.24 19.2-42.24 42.24s19.2 42.24 42.24 42.24c23.040 0 42.24-19.2 42.24-42.24 1.28-23.040-17.92-42.24-42.24-42.24v0zM1024 386.377v-90.88c0-23.040-17.92-40.96-40.96-40.96h-43.52c-7.68 55.040-55.040 97.28-111.36 97.28s-103.68-42.24-111.36-97.28h-225.28c-7.68 55.040-55.040 97.28-111.36 97.28s-103.68-42.24-111.36-97.28h-55.040c-23.040 0-40.96 17.92-40.96 40.96v90.88h851.2zM826.88 322.377c-47.36 0-85.76-38.4-85.76-85.76s38.4-85.76 85.76-85.76c47.36 0 85.76 38.4 85.76 85.76s-38.4 85.76-85.76 85.76v0zM826.88 194.377c-23.040 0-42.24 19.2-42.24 42.24s19.2 42.24 42.24 42.24c23.040 0 42.24-19.2 42.24-42.24s-19.2-42.24-42.24-42.24v0zM1007.36 478.537l-161.28 160c-10.24 10.24-24.32 15.36-38.4 15.36h-81.92v30.72c0 23.040-17.92 40.96-40.96 40.96h-472.32c-23.040 0-40.96-17.92-40.96-40.96v-6.4l-167.68-19.2 296.96-38.4-300.8-29.44 299.52-42.24-299.52-26.88 171.52-32v-80.64h852.48v29.44c0 15.36-6.4 28.16-16.64 39.68v0zM936.96 472.137h-156.16c-3.84 0-6.4 2.56-6.4 6.4v121.6c0 3.84 2.56 6.4 6.4 6.4h29.44c1.28 0 3.84-1.28 5.12-1.28l126.72-121.6c3.84-3.84 1.28-11.52-5.12-11.52v0z" />
<glyph unicode="&#xe60a;" glyph-name="small-arrow" d="M510.72 950.857c-270.080 0-491.52-208.64-510.72-473.6h599.040l-179.2 179.2c-15.36 15.36-15.36 38.4 0 53.76s39.68 15.36 53.76 0l244.48-244.48c15.36-15.36 15.36-38.4 0-53.76l-244.48-244.48c-7.68-7.68-16.64-11.52-26.88-11.52s-19.2 3.84-26.88 11.52c-15.36 15.36-15.36 38.4 0 53.76l179.2 179.2h-599.040c19.2-264.96 240.64-473.6 510.72-473.6 284.16 0 513.28 229.12 513.28 512s-229.12 512-513.28 512z" />
<glyph unicode="&#xe60b;" glyph-name="grid-view" d="M0 950.857h384v-384h-384v384zM640 950.857h384v-384h-384v384zM0 310.857h384v-384h-384v384zM640 310.857h384v-384h-384v384z" />
<glyph unicode="&#xe60c;" glyph-name="list-view" d="M0 894.537h227.84v-227.84h-227.84v227.84zM341.76 894.537h682.24v-227.84h-682.24v227.84zM0 552.777h227.84v-227.84h-227.84v227.84zM341.76 552.777h682.24v-227.84h-682.24v227.84zM0 211.017h227.84v-227.84h-227.84v227.84zM341.76 211.017h682.24v-227.84h-682.24v227.84z" />
<glyph unicode="&#xe60d;" glyph-name="text-view" d="M0 894.537h1024v-227.84h-1024v227.84zM0 552.777h1024v-227.84h-1024v227.84zM0 211.017h1024v-227.84h-1024v227.84z" />
<glyph unicode="&#xe60e;" glyph-name="checkbox-checked" d="M896 960h-768c-70.4 0-128-57.6-128-128v-768c0-70.4 57.6-128 128-128h768c70.4 0 128 57.6 128 128v768c0 70.4-57.6 128-128 128zM448 165.49l-237.254 237.256 90.51 90.508 146.744-146.744 306.746 306.746 90.508-90.51-397.254-397.256z" />
<glyph unicode="&#xe60f;" glyph-name="printer" d="M256 896h512v-128h-512v128zM960 704h-896c-35.2 0-64-28.8-64-64v-320c0-35.2 28.794-64 64-64h192v-256h512v256h192c35.2 0 64 28.8 64 64v320c0 35.2-28.8 64-64 64zM128 512c-35.346 0-64 28.654-64 64s28.654 64 64 64 64-28.654 64-64-28.652-64-64-64zM704 64h-384v320h384v-320z" />
<glyph unicode="&#xe610;" glyph-name="key" d="M704 960c-176.73 0-320-143.268-320-320 0-20.026 1.858-39.616 5.376-58.624l-389.376-389.376v-192c0-35.346 28.654-64 64-64h64v64h128v128h128v128h128l83.042 83.042c34.010-12.316 70.696-19.042 108.958-19.042 176.73 0 320 143.268 320 320s-143.27 320-320 320zM799.874 639.874c-53.020 0-96 42.98-96 96s42.98 96 96 96 96-42.98 96-96-42.98-96-96-96z" />
<glyph unicode="&#xe611;" glyph-name="key-2" d="M1002.132 645.758l-101.106 101.104c-24.792 24.794-65.37 65.368-90.162 90.164l-101.106 101.104c-24.792 24.794-68.954 29.166-98.13 9.716l-276.438-184.292c-29.176-19.452-40.218-61.028-24.536-92.39l70.486-140.974c2.154-4.306 4.646-8.896 7.39-13.66l-356.53-356.53-32-224h192v64h128v128h128v128h128v71.186c6.396-3.812 12.534-7.216 18.192-10.044l140.97-70.488c31.366-15.682 72.94-4.638 92.39 24.538l184.294 276.44c19.454 29.172 15.078 73.33-9.714 98.126zM150.628 105.374l-45.254 45.254 311.572 311.57 45.254-45.254-311.572-311.57zM917.020 536.236l-45.256-45.256c-12.446-12.444-32.808-12.444-45.254 0l-271.53 271.53c-12.446 12.444-12.446 32.81 0 45.254l45.256 45.256c12.446 12.444 32.808 12.444 45.254 0l271.53-271.53c12.446-12.444 12.446-32.81 0-45.254z" />
<glyph unicode="&#xe612;" glyph-name="fedex" horiz-adv-x="3195" d="M2891.068 292.571l257.925 288.722h-261.774l-123.188-138.586-127.038 138.586h-269.474l254.075-288.722-254.075-288.722h261.774l123.188 142.436 127.038-142.436h273.323zM2074.947 207.88v180.932h292.571v192.481h-292.571v130.887h292.571v204.030h-508.15v-912.361h508.15v204.030zM1609.143 916.21v-373.414h-3.85c-46.195 53.895-107.789 73.143-173.233 73.143-138.586 0-246.376-96.241-284.872-223.278-42.346 138.586-150.135 223.278-311.82 223.278-130.887 0-234.827-57.744-288.722-153.985v115.489h-269.474v134.737h296.421v204.030h-538.947v-912.361h238.677v384.962h238.677c-7.699-26.947-11.549-57.744-11.549-88.541 0-188.632 146.286-323.368 331.068-323.368 153.985 0 257.925 73.143 311.82 207.88h-207.88c-26.947-38.496-50.045-53.895-103.94-53.895-65.444 0-123.188 57.744-123.188 123.188h423.459c15.398-153.985 134.737-281.023 296.421-281.023 69.293 0 134.737 34.647 173.233 92.391h3.85v-57.744h215.579v908.511h-211.729zM719.88 384.962c15.398 57.744 57.744 96.241 115.489 96.241 61.594 0 103.94-38.496 115.489-96.241 3.85 0-230.977 0-230.977 0zM1482.105 142.436c-76.992 0-127.038 73.143-127.038 150.135 0 80.842 42.346 161.684 127.038 161.684 88.541 0 123.188-76.992 123.188-161.684-3.85-76.992-38.496-150.135-123.188-150.135z" />
<glyph unicode="&#xe613;" glyph-name="shere" d="M512 950.857c-282.88 0-512-229.12-512-512s229.12-512 512-512c282.88 0 512 229.12 512 512s-229.12 512-512 512v0zM779.52 362.057h-198.4v-199.68c0-34.56-28.16-61.44-61.44-61.44-34.56 0-61.44 28.16-61.44 61.44v199.68h-200.96c-34.56 0-61.44 28.16-61.44 61.44 0 34.56 28.16 61.44 61.44 61.44h199.68v200.96c0 34.56 28.16 61.44 61.44 61.44 34.56 0 61.44-28.16 61.44-61.44v-199.68h199.68c34.56 0 61.44-28.16 61.44-61.44 1.28-34.56-26.88-62.72-61.44-62.72v0z" />
<glyph unicode="&#xe614;" glyph-name="ups" d="M512-73.143c-26.88 11.52-244.48 106.24-314.88 163.84-75.52 62.72-115.2 151.040-115.2 258.56v505.6c119.040 64 264.96 96 430.080 96 166.4 0 311.040-32 430.080-96v-505.6c0-106.24-39.68-195.84-115.2-257.28-69.12-57.6-289.28-153.6-314.88-165.12zM121.6 349.257c0-94.72 34.56-172.8 101.12-226.56 58.88-47.36 238.080-129.28 289.28-152.32 49.92 21.76 230.4 102.4 289.28 152.32 66.56 55.040 101.12 131.84 101.12 226.56v495.36c-250.88 23.040-546.56 8.96-780.8-206.080 0 0 0-289.28 0-289.28zM160 378.697v235.52h74.24v-238.080c0-21.76 5.12-52.48 39.68-52.48 15.36 0 26.88 3.84 35.84 8.96v281.6h74.24v-325.12c-28.16-19.2-66.56-29.44-112.64-29.44-74.24 0-111.36 39.68-111.36 119.040zM497.92 107.337h-74.24v487.68c26.88 17.92 60.16 26.88 101.12 26.88 89.6 0 138.24-67.84 138.24-176.64s-47.36-184.32-130.56-184.32c-15.36 0-25.6 2.56-33.28 3.84v-157.44h-1.28zM497.92 326.217c5.12-2.56 14.080-5.12 24.32-5.12 43.52 0 64 39.68 64 121.6 0 84.48-17.92 119.040-61.44 119.040-10.24 0-20.48-2.56-26.88-5.12 0 0 0-230.4 0-230.4zM678.4 524.617c0 60.16 51.2 96 99.84 97.28 40.96 1.28 69.12-14.080 81.92-24.32v-65.28c-15.36 16.64-40.96 30.72-66.56 30.72-21.76 0-43.52-8.96-43.52-35.84-1.28-26.88 21.76-38.4 48.64-53.76 62.72-37.12 74.24-70.4 72.96-113.92-1.28-47.36-34.56-99.84-108.8-99.84-29.44 0-58.88 8.96-81.92 23.040v69.12c19.2-16.64 47.36-30.72 71.68-30.72 26.88 0 46.080 15.36 44.8 42.24 0 23.040-14.080 35.84-47.36 55.040-60.16 35.84-71.68 66.56-71.68 106.24z" />
<glyph unicode="&#xe615;" glyph-name="google" d="M789.534 896c0 0-200.956 0-267.94 0-120.122 0-233.17-91.006-233.17-196.422 0-107.726 81.882-194.666 204.088-194.666 8.498 0 16.756 0.17 24.84 0.752-7.928-15.186-13.6-32.288-13.6-50.042 0-29.938 16.104-54.21 36.468-74.024-15.386 0-30.242-0.448-46.452-0.448-148.782 0.002-263.3-94.76-263.3-193.022 0-96.778 125.542-157.312 274.334-157.312 169.624 0 263.306 96.244 263.306 193.028 0 77.602-22.896 124.072-93.686 174.134-24.216 17.142-70.532 58.836-70.532 83.344 0 28.72 8.196 42.868 51.428 76.646 44.312 34.624 75.674 83.302 75.674 139.916 0 67.406-30.022 133.098-86.374 154.772h84.956l59.96 43.344zM695.948 240.542c2.126-8.972 3.284-18.208 3.284-27.628 0-78.2-50.39-139.31-194.974-139.31-102.842 0-177.116 65.104-177.116 143.3 0 76.642 92.126 140.444 194.964 139.332 24-0.254 46.368-4.116 66.668-10.69 55.828-38.828 95.876-60.76 107.174-105.004zM531.286 532.224c-69.038 2.064-134.636 77.226-146.552 167.86-11.916 90.666 34.37 160.042 103.388 157.99 69.008-2.074 134.636-74.814 146.558-165.458 11.906-90.66-34.39-162.458-103.394-160.392z" />
<glyph unicode="&#xe616;" glyph-name="facebook-simple" d="M672 768c-88.366 0-160-71.634-160-160v-96h-128v-128h128v-448h128v448h144l32 128h-176v96c0 17.672 14.326 32 32 32h160v128h-160z" />
<glyph unicode="&#xe900;" glyph-name="arrow-left" d="M877.709 438.857v-73.139q0-30.285-18.573-51.712t-48.282-21.427h-402.291l167.424-168q21.709-20.57 21.709-51.43t-21.709-51.43l-42.854-43.43q-21.146-21.146-51.43-21.146-29.709 0-52.006 21.146l-372.006 372.57q-21.146 21.146-21.146 51.43 0 29.709 21.146 52.006l372.006 371.43q21.709 21.709 52.006 21.709 29.709 0 51.43-21.709l42.854-42.291q21.709-21.709 21.709-52.006t-21.709-52.006l-167.424-167.424h402.291q29.709 0 48.282-21.427t18.573-51.712z" />
<glyph unicode="&#xe901;" glyph-name="delete" d="M128 630.857v-640c0-35.2 28.8-64 64-64h576c35.2 0 64 28.8 64 64v640h-704zM320 54.857h-64v448h64v-448zM448 54.857h-64v448h64v-448zM576 54.857h-64v448h64v-448zM704 54.857h-64v448h64v-448zM848 822.857h-208v80c0 26.4-21.6 48-48 48h-224c-26.4 0-48-21.6-48-48v-80h-208c-26.4 0-48-21.6-48-48v-80h832v80c0 26.4-21.6 48-48 48zM576 822.857h-192v63.2h192v-63.2z" />
<glyph unicode="&#xe902;" glyph-name="edit" d="M207.424 73.148l52.006 52.006-134.285 134.285-52.006-52.006v-61.146h73.139v-73.139h61.146zM506.291 603.427q0 12.57-12.57 12.57-5.709 0-9.715-4.006l-309.709-309.709q-4.006-4.006-4.006-9.715 0-12.57 12.57-12.57 5.709 0 9.715 4.006l309.709 309.709q4.006 4.006 4.006 9.715zM475.43 713.148l237.709-237.709-475.43-475.43h-237.709v237.709zM865.715 658.287q0-30.285-21.146-51.43l-94.861-94.861-237.709 237.709 94.861 94.285q20.57 21.709 51.43 21.709 30.285 0 52.006-21.709l134.285-133.709q21.146-22.285 21.146-52.006z" />
<glyph unicode="&#xe903;" glyph-name="manage" d="M585.139 438.857q0 60.57-42.854 103.424t-103.424 42.854-103.424-42.854-42.854-103.424 42.854-103.424 103.424-42.854 103.424 42.854 42.854 103.424zM877.709 501.142v-126.861q0-6.861-4.57-13.146t-11.43-7.424l-105.715-16q-10.854-30.861-22.285-52.006 20.006-28.57 61.146-78.861 5.709-6.861 5.709-14.285t-5.146-13.146q-15.424-21.146-56.576-61.709t-53.709-40.576q-6.861 0-14.861 5.146l-78.861 61.709q-25.139-13.146-52.006-21.709-9.139-77.709-16.576-106.291-4.006-16-20.57-16h-126.861q-8 0-14.003 4.851t-6.566 12.288l-16 105.139q-28.006 9.139-51.43 21.146l-80.576-61.146q-5.709-5.146-14.285-5.146-8 0-14.285 6.285-72 65.139-94.285 96-4.006 5.709-4.006 13.146 0 6.861 4.57 13.146 8.576 12.006 29.146 38.003t30.861 40.282q-15.424 28.57-23.424 56.576l-104.576 15.424q-7.424 1.139-12.006 7.142t-4.57 13.427v126.861q0 6.861 4.57 13.146t10.854 7.424l106.291 16q8 26.291 22.285 52.57-22.861 32.576-61.146 78.861-5.709 6.861-5.709 13.709 0 5.709 5.146 13.146 14.861 20.57 56.282 61.427t54.003 40.858q7.424 0 14.861-5.709l78.861-61.146q25.139 13.146 52.006 21.709 9.139 77.709 16.576 106.291 4.006 16 20.57 16h126.861q8 0 14.003-4.851t6.566-12.288l16-105.139q28.006-9.139 51.43-21.146l81.139 61.146q5.146 5.146 13.709 5.146 7.424 0 14.285-5.709 73.715-67.994 94.285-97.139 4.006-4.57 4.006-12.57 0-6.861-4.57-13.146-8.576-12.006-29.146-38.003t-30.861-40.282q14.861-28.57 23.424-56l104.576-16q7.424-1.139 12.006-7.142t4.57-13.427z" />
<glyph unicode="&#xe904;" glyph-name="view" horiz-adv-x="1101" d="M1024 383.996v475.43q0 7.424-5.427 12.851t-12.851 5.427h-914.291q-7.424 0-12.851-5.427t-5.427-12.851v-475.43q0-7.424 5.427-12.851t12.851-5.427h914.291q7.424 0 12.851 5.427t5.427 12.851zM1097.139 859.427v-621.709q0-37.709-26.854-64.576t-64.576-26.854h-310.861q0-21.146 9.139-44.288t18.291-40.576 9.139-24.858q0-14.861-10.854-25.715t-25.715-10.854h-292.57q-14.861 0-25.715 10.854t-10.854 25.715q0 8 9.139 25.139t18.291 40 9.139 44.57h-310.861q-37.709 0-64.576 26.854t-26.854 64.576v621.709q0 37.709 26.854 64.576t64.576 26.854h914.291q37.709 0 64.576-26.854t26.854-64.576z" />
<glyph unicode="&#xe905;" glyph-name="order-view" d="M805.12 405.577c7.68 78.080-14.080 154.88-64 215.040-65.28 80.64-170.24 121.6-273.92 104.96-51.2-7.68-98.56-29.44-138.24-61.44-61.44-49.92-98.56-119.040-107.52-197.12-7.68-78.080 14.080-154.88 64-215.040 65.28-80.64 170.24-121.6 273.92-104.96 32 5.12 64 15.36 93.44 32l184.32-226.56 84.48 67.84-184.32 226.56c37.12 43.52 61.44 98.56 67.84 158.72zM696.32 417.097c-5.12-48.64-29.44-93.44-67.84-124.16-25.6-20.48-55.040-33.28-87.040-38.4-65.28-10.24-130.56 15.36-172.8 66.56-30.72 38.4-44.8 85.76-39.68 135.68 5.12 48.64 29.44 93.44 67.84 124.16 25.6 20.48 55.040 33.28 87.040 38.4 65.28 10.24 130.56-15.36 172.8-66.56 30.72-38.4 44.8-87.040 39.68-135.68zM908.8 950.857h-798.72c-28.16 0-52.48-23.040-52.48-52.48v-919.040c0-29.44 23.040-52.48 52.48-52.48h555.52v87.040h-472.32c-29.44 0-52.48 23.040-52.48 52.48v752.64c0 29.44 23.040 52.48 52.48 52.48h632.32c29.44 0 52.48-23.040 52.48-52.48v-579.84h81.92v659.2c1.28 29.44-23.040 52.48-51.2 52.48z" />
<glyph unicode="&#xe906;" glyph-name="pdf-file" d="M842.012 370.52c-13.648 13.446-43.914 20.566-89.972 21.172-31.178 0.344-68.702-2.402-108.17-7.928-17.674 10.198-35.892 21.294-50.188 34.658-38.462 35.916-70.568 85.772-90.576 140.594 1.304 5.12 2.414 9.62 3.448 14.212 0 0 21.666 123.060 15.932 164.666-0.792 5.706-1.276 7.362-2.808 11.796l-1.882 4.834c-5.894 13.592-17.448 27.994-35.564 27.208l-10.916 0.344c-20.202 0-36.664-10.332-40.986-25.774-13.138-48.434 0.418-120.892 24.98-214.738l-6.288-15.286c-17.588-42.876-39.63-86.060-59.078-124.158l-2.528-4.954c-20.46-40.040-39.026-74.028-55.856-102.822l-17.376-9.188c-1.264-0.668-31.044-16.418-38.028-20.644-59.256-35.38-98.524-75.542-105.038-107.416-2.072-10.17-0.53-23.186 10.014-29.212l16.806-8.458c7.292-3.652 14.978-5.502 22.854-5.502 42.206 0 91.202 52.572 158.698 170.366 77.93 25.37 166.652 46.458 244.412 58.090 59.258-33.368 132.142-56.544 178.142-56.544 8.168 0 15.212 0.78 20.932 2.294 8.822 2.336 16.258 7.368 20.792 14.194 8.926 13.432 10.734 31.932 8.312 50.876-0.72 5.622-5.21 12.574-10.068 17.32zM211.646 145.952c7.698 21.042 38.16 62.644 83.206 99.556 2.832 2.296 9.808 8.832 16.194 14.902-47.104-75.124-78.648-105.066-99.4-114.458zM478.434 760.314c13.566 0 21.284-34.194 21.924-66.254s-6.858-54.56-16.158-71.208c-7.702 24.648-11.426 63.5-11.426 88.904 0 0-0.566 48.558 5.66 48.558v0zM398.852 322.506c9.45 16.916 19.282 34.756 29.33 53.678 24.492 46.316 39.958 82.556 51.478 112.346 22.91-41.684 51.444-77.12 84.984-105.512 4.186-3.542 8.62-7.102 13.276-10.65-68.21-13.496-127.164-29.91-179.068-49.862v0zM828.902 326.348c-4.152-2.598-16.052-4.1-23.708-4.1-24.708 0-55.272 11.294-98.126 29.666 16.468 1.218 31.562 1.838 45.102 1.838 24.782 0 32.12 0.108 56.35-6.072 24.228-6.18 24.538-18.734 20.382-21.332v0zM917.806 730.924c-22.21 30.292-53.174 65.7-87.178 99.704s-69.412 64.964-99.704 87.178c-51.574 37.82-76.592 42.194-90.924 42.194h-496c-44.112 0-80-35.888-80-80v-864c0-44.112 35.886-80 80-80h736c44.112 0 80 35.888 80 80v624c0 14.332-4.372 39.35-42.194 90.924v0zM785.374 785.374c30.7-30.7 54.8-58.398 72.58-81.374h-153.954v153.946c22.982-17.78 50.678-41.878 81.374-72.572v0zM896 16c0-8.672-7.328-16-16-16h-736c-8.672 0-16 7.328-16 16v864c0 8.672 7.328 16 16 16 0 0 495.956 0.002 496 0v-224c0-17.672 14.324-32 32-32h224v-624z" />
<glyph unicode="&#xe907;" glyph-name="word-file" d="M639.778 484.108h44.21l-51.012-226.178-66.324 318.010h-106.55l-77.114-318.010-57.816 318.010h-111.394l113.092-511.88h108.838l76.294 302.708 68.256-302.708h100.336l129.628 511.88h-170.446v-91.832zM917.806 730.924c-22.21 30.292-53.174 65.7-87.178 99.704s-69.412 64.964-99.704 87.178c-51.574 37.82-76.592 42.194-90.924 42.194h-496c-44.112 0-80-35.888-80-80v-864c0-44.112 35.886-80 80-80h736c44.112 0 80 35.888 80 80v624c0 14.332-4.372 39.35-42.194 90.924v0zM785.374 785.374c30.7-30.7 54.8-58.398 72.58-81.374h-153.954v153.946c22.982-17.78 50.678-41.878 81.374-72.572v0zM896 16c0-8.672-7.328-16-16-16h-736c-8.672 0-16 7.328-16 16v864c0 8.672 7.328 16 16 16 0 0 495.956 0.002 496 0v-224c0-17.672 14.324-32 32-32h224v-624z" />
<glyph unicode="&#xe908;" glyph-name="excel-file" d="M743.028 576h-135.292l-95.732-141.032-95.742 141.032h-135.29l162.162-242.464-182.972-269.536h251.838v91.576h-50.156l50.156 74.994 111.396-166.57h140.444l-182.976 269.536 162.164 242.464zM917.806 730.924c-22.21 30.292-53.174 65.7-87.178 99.704s-69.412 64.964-99.704 87.178c-51.574 37.82-76.592 42.194-90.924 42.194h-496c-44.112 0-80-35.888-80-80v-864c0-44.112 35.886-80 80-80h736c44.112 0 80 35.888 80 80v624c0 14.332-4.372 39.35-42.194 90.924v0zM785.374 785.374c30.7-30.7 54.8-58.398 72.58-81.374h-153.954v153.946c22.982-17.78 50.678-41.878 81.374-72.572v0zM896 16c0-8.672-7.328-16-16-16h-736c-8.672 0-16 7.328-16 16v864c0 8.672 7.328 16 16 16 0 0 495.956 0.002 496 0v-224c0-17.672 14.324-32 32-32h224v-624z" />
<glyph unicode="&#xe909;" glyph-name="down" d="M910.080 714.057c0 0-1.28-2.56-2.56-3.84-126.72-180.48-253.44-362.24-381.44-544-3.84-6.4-5.12-1.28-7.68 1.28-128 174.080-257.28 346.88-385.28 520.96-3.84 5.12-19.2 25.6-19.2 25.6h796.16z" />
<glyph unicode="&#xe90a;" glyph-name="up" d="M113.92 163.657c0 0 15.36 20.48 19.2 25.6 128 174.080 257.28 346.88 385.28 520.96 2.56 2.56 3.84 7.68 7.68 1.28 128-181.76 254.72-363.52 381.44-544 1.28-1.28 2.56-3.84 2.56-3.84h-796.16z" />
<glyph unicode="&#xe90b;" glyph-name="orders" d="M983.040 836.937c-3.84 1.28-6.4 1.28-10.24 2.56-131.84 25.6-264.96 52.48-396.8 78.080-53.76 10.24-106.24 20.48-160 32-30.72 6.4-46.080-2.56-57.6-30.72-2.56-5.12-3.84-10.24-5.12-14.080-60.16-163.84-119.040-327.68-179.2-491.52-2.56-5.12-3.84-11.52-5.12-17.92-2.56-20.48 6.4-37.12 24.32-43.52s37.12 0 47.36 16.64c3.84 7.68 7.68 15.36 10.24 23.040 48.64 135.68 98.56 271.36 147.2 407.040 7.68 23.040 16.64 44.8 25.6 67.84 171.52-33.28 340.48-67.84 510.72-101.12-32-93.44-60.16-183.040-90.88-271.36-43.52-122.88-84.48-247.040-138.24-364.8-14.080-32-32-64-57.6-88.32-64-61.44-153.6-38.4-179.2 46.080-6.4 21.76-8.96 43.52-7.68 66.56 0 11.52-3.84 17.92-14.080 21.76-5.12 1.28-11.52 5.12-16.64 7.68-80.64 32-161.28 64-240.64 96-58.88 24.32-119.040 47.36-179.2 72.96-7.68-21.76-8.96-40.96-8.96-58.88-5.12-88.32 33.28-157.44 113.92-192 10.24-3.84 20.48-8.96 30.72-14.080 102.4-46.080 204.8-92.16 307.2-138.24 94.72-42.24 224-25.6 291.84 87.040 37.12 61.44 62.72 128 88.32 195.84 44.8 117.76 85.76 236.8 125.44 355.84 20.48 62.72 40.96 124.16 61.44 186.88 11.52 34.56-1.28 53.76-37.12 62.72zM487.68 364.617c-10.24 2.56-19.2 6.4-24.32 6.4-32 0-48.64-17.92-46.080-43.52 2.56-19.2 14.080-28.16 30.72-34.56 52.48-16.64 104.96-34.56 157.44-51.2 30.72-10.24 52.48-1.28 60.16 23.040 7.68 23.040-6.4 43.52-35.84 52.48-47.36 15.36-94.72 32-142.080 47.36zM519.68 531.017c-21.76-1.28-37.12-16.64-37.12-38.4 0-19.2 10.24-32 33.28-40.96 34.56-11.52 69.12-23.040 103.68-33.28 21.76-7.68 44.8-14.080 66.56-20.48 15.36-3.84 29.44 1.28 38.4 14.080 8.96 11.52 8.96 25.6 3.84 39.68-6.4 15.36-20.48 20.48-34.56 25.6-49.92 16.64-99.84 32-149.76 48.64-7.68 2.56-15.36 5.12-24.32 5.12zM743.68 573.257c6.4-1.28 11.52-2.56 15.36-2.56 23.040 0 39.68 12.8 42.24 33.28 2.56 17.92-7.68 37.12-26.88 42.24-58.88 16.64-117.76 33.28-177.92 48.64-21.76 5.12-39.68-7.68-46.080-28.16s7.68-40.96 34.56-48.64c53.76-16.64 106.24-30.72 158.72-44.8zM366.080 528.457c0-23.040 19.2-40.96 44.8-39.68 23.040 0 39.68 16.64 39.68 38.4 0 23.040-19.2 40.96-44.8 39.68-23.040 0-39.68-16.64-39.68-38.4zM471.040 731.977c-23.040 1.28-42.24-16.64-42.24-38.4s16.64-38.4 42.24-39.68c23.040-1.28 40.96 14.080 42.24 35.84 0 21.76-17.92 40.96-42.24 42.24zM303.36 377.417c0-24.32 16.64-40.96 43.52-40.96 21.76 0 40.96 16.64 40.96 38.4s-19.2 39.68-42.24 40.96c-24.32 0-40.96-15.36-42.24-38.4z" />
<glyph unicode="&#xe90c;" glyph-name="refund-order" d="M572.16 706.377c0-43.52 0-87.040 0-129.28-39.68 0-79.36 0-120.32 0 0 43.52 0 87.040 0 129.28-151.040 0-300.8 0-451.84 0 0-259.84 0-519.68 0-779.52 341.76 0 682.24 0 1024 0 0 259.84 0 519.68 0 779.52-151.040 0-300.8 0-451.84 0zM583.68 38.217c-7.68-1.28-16.64-2.56-24.32-2.56-57.6 0-113.92 0-171.52 0-2.56 0-6.4-1.28-8.96 1.28 0 26.88 0 53.76 0 80.64 3.84 3.84 8.96 1.28 12.8 1.28 52.48 0 104.96 0 158.72 0 55.040 0 101.12 33.28 117.76 87.040 21.76 71.68-29.44 148.48-103.68 154.88-30.72 2.56-60.16 1.28-90.88 1.28 0-28.16 0-55.040 0-84.48-60.16 42.24-116.48 84.48-175.36 126.72 58.88 42.24 115.2 83.2 174.080 125.44 0-28.16 0-55.040 0-80.64 5.12-3.84 8.96-2.56 12.8-2.56 28.16-1.28 55.040 1.28 83.2-1.28 97.28-6.4 176.64-80.64 188.16-176.64 15.36-125.44-75.52-217.6-172.8-230.4zM451.84 758.857c0 64 0 126.72 0 189.44-2.56 2.56-5.12 2.56-6.4 2.56-107.52 0-215.040 0-322.56 0-7.68 0-11.52-3.84-15.36-10.24-34.56-57.6-67.84-113.92-102.4-171.52-1.28-2.56-5.12-6.4-3.84-10.24 149.76 0 299.52 0 450.56 0zM1017.6 770.377c-33.28 56.32-67.84 112.64-99.84 168.96-5.12 8.96-11.52 11.52-20.48 11.52-103.68 0-207.36 0-309.76 0-5.12 0-8.96 1.28-14.080-1.28 0-62.72 0-126.72 0-190.72 151.040 0 300.8 0 450.56 0-1.28 5.12-3.84 8.96-6.4 11.52z" />
<glyph unicode="&#xe90d;" glyph-name="star-empty" d="M512 863.817l129.28-296.96 23.040-2.56 300.8-28.16-245.76-213.76 5.12-21.76 66.56-293.12-279.040 165.12-19.2-11.52-259.84-153.6 66.56 293.12 5.12 21.76-16.64 15.36-227.84 198.4 300.8 28.16 23.040 2.56 8.96 20.48 119.040 276.48zM512 925.257c0 0 0 0 0 0-8.96 0-17.92-5.12-21.76-14.080l-133.12-308.48-335.36-30.72c-8.96-1.28-17.92-7.68-20.48-16.64s0-19.2 6.4-24.32l253.44-221.44-74.24-327.68c-2.56-8.96 1.28-19.2 8.96-24.32 3.84-2.56 8.96-3.84 14.080-3.84 3.84 0 8.96 1.28 11.52 3.84l290.56 168.96 290.56-171.52c3.84-2.56 7.68-3.84 11.52-3.84 5.12 0 10.24 1.28 14.080 5.12 7.68 5.12 11.52 15.36 8.96 24.32l-74.24 327.68 253.44 221.44c6.4 6.4 10.24 15.36 6.4 24.32-2.56 8.96-10.24 15.36-20.48 16.64l-335.36 30.72-133.12 309.76c-3.84 8.96-12.8 14.080-21.76 14.080v0z" />
<glyph unicode="&#xe90e;" glyph-name="star-full" d="M837.12-18.103c2.56-8.96-1.28-19.2-8.96-24.32s-17.92-6.4-25.6-1.28l-290.56 170.24-289.28-170.24c-7.68-5.12-17.92-3.84-25.6 1.28s-11.52 15.36-8.96 24.32l74.24 327.68-254.72 221.44c-6.4 6.4-10.24 15.36-6.4 24.32 2.56 8.96 10.24 15.36 20.48 16.64l335.36 32 133.12 307.2c3.84 8.96 12.8 14.080 21.76 14.080s17.92-5.12 21.76-14.080l134.4-308.48 335.36-30.72c8.96-1.28 16.64-7.68 20.48-16.64 2.56-8.96 0-19.2-6.4-24.32l-254.72-222.72 74.24-326.4z" />
<glyph unicode="&#xe90f;" glyph-name="star-half" d="M1022.72 555.337c-2.56 8.96-10.24 15.36-20.48 16.64l-335.36 30.72-133.12 308.48c-3.84 8.96-12.8 14.080-21.76 14.080 0 0 0 0 0 0s0 0 0 0c-8.96 0-17.92-5.12-21.76-14.080l-133.12-308.48-335.36-30.72c-8.96-1.28-16.64-7.68-20.48-16.64-1.28-5.12-1.28-8.96 0-14.080 0-1.28 1.28-2.56 2.56-3.84 1.28-2.56 2.56-5.12 5.12-7.68l103.68-90.88 149.76-130.56-74.24-327.68c0-2.56 0-5.12 0-7.68 0-3.84 1.28-7.68 3.84-10.24 1.28-2.56 2.56-3.84 5.12-6.4 0 0 0 0 0 0 3.84-2.56 8.96-3.84 12.8-3.84 0 0 0 0 0 0 3.84 0 8.96 1.28 11.52 3.84l289.28 171.52 290.56-171.52c3.84-2.56 7.68-3.84 11.52-3.84 5.12 0 10.24 1.28 14.080 5.12 7.68 5.12 11.52 15.36 8.96 24.32l-74.24 327.68 253.44 221.44c7.68 6.4 10.24 15.36 7.68 24.32zM737.28 337.737l-17.92-15.36 5.12-21.76 66.56-293.12-259.84 153.6-16.64 8.96v687.36l116.48-270.080 8.96-20.48 23.040-2.56 300.8-28.16-226.56-198.4z" />
<glyph unicode="&#xe910;" glyph-name="view-details" d="M614.4 639.817c3.84 2.56 7.68 3.84 7.68 8.96s-3.84 6.4-7.68 8.96c0 0-1.28 0-1.28 0-56.32 29.44-112.64 58.88-168.96 88.32-12.8 6.4-25.6 6.4-38.4 0-53.76-28.16-107.52-56.32-162.56-84.48-3.84-2.56-7.68-3.84-11.52-6.4-5.12-3.84-5.12-10.24 0-14.080 1.28-1.28 2.56-1.28 3.84-2.56 56.32-29.44 112.64-58.88 168.96-88.32 6.4-2.56 12.8-5.12 19.2-5.12s12.8 1.28 19.2 5.12c43.52 23.040 87.040 46.080 130.56 67.84 15.36 7.68 28.16 14.080 40.96 21.76zM620.8 596.297c-1.28 0-2.56-1.28-3.84-1.28-49.92-25.6-99.84-51.2-149.76-76.8-12.8-6.4-19.2-16.64-19.2-30.72 0-28.16 0-57.6 0-85.76 0-29.44 0-57.6 0-87.040 0-2.56 0-3.84 1.28-6.4 1.28-5.12 5.12-7.68 11.52-6.4 2.56 0 3.84 1.28 6.4 2.56 12.8 7.68 25.6 15.36 38.4 21.76 38.4 21.76 75.52 43.52 113.92 65.28 10.24 6.4 16.64 15.36 16.64 26.88 0 56.32 0 112.64 0 168.96-1.28 7.68-7.68 11.52-15.36 8.96zM386.56 515.657c-7.68 5.12-16.64 8.96-25.6 12.8-42.24 21.76-83.2 43.52-125.44 64-1.28 0-2.56 1.28-3.84 1.28-8.96 3.84-15.36 0-15.36-10.24 0-55.040 0-110.080 0-165.12 0-14.080 6.4-24.32 17.92-32 15.36-8.96 30.72-17.92 47.36-26.88 34.56-20.48 70.4-39.68 104.96-60.16 2.56-1.28 6.4-3.84 10.24-2.56 5.12 1.28 7.68 5.12 7.68 12.8 0 29.44 0 58.88 0 88.32s0 57.6 0 87.040c-1.28 15.36-6.4 24.32-17.92 30.72zM985.6 99.657l-192 190.72c-8.96 8.96-2.56 21.76-2.56 21.76 98.56 163.84 76.8 373.76-64 514.56-166.4 166.4-436.48 166.4-602.88 0s-166.4-436.48 0-602.88c140.8-140.8 350.72-162.56 514.56-64 0 0 11.52 7.68 21.76-2.56l190.72-192c43.52-43.52 103.68-53.76 142.080-15.36l6.4 6.4c38.4 39.68 28.16 99.84-14.080 143.36zM648.96 303.177c-122.88-122.88-322.56-122.88-445.44 0s-122.88 322.56 0 445.44c122.88 122.88 322.56 122.88 445.44 0 122.88-124.16 122.88-323.84 0-445.44z" />
<glyph unicode="&#xe911;" glyph-name="active" horiz-adv-x="1376" d="M1365.344 797.257c0 6.816-1.696 10.24-5.12 13.664l-133.12 134.816c-5.12 3.424-6.816 5.12-13.664 5.12-5.12 0-8.544-1.696-11.936-5.12l-696.32-704.864-341.344 346.464c-3.424 3.424-6.816 5.12-11.936 5.12s-8.544-1.696-11.936-5.12l-133.12-134.816c-5.12-3.424-6.816-6.816-6.816-13.664s1.696-10.24 5.12-13.664l488.096-493.216c3.424-3.424 6.816-5.12 11.936-5.12s8.544 1.696 11.936 5.12l843.104 851.616c3.424 3.424 5.12 6.816 5.12 13.664z" />
<glyph unicode="&#xe912;" glyph-name="inactive" d="M876.8-73.143l147.2 145.92-372.48 372.48 367.36 368.64-138.24 136.96-366.080-369.92-372.48 369.92-142.080-143.36 368.64-368.64-368.64-369.92 139.52-136.96 367.36 372.48z" />
<glyph unicode="&#xe913;" glyph-name="arrow-left-big" horiz-adv-x="691" d="M514.56 950.857l-337.92-335.36-176.64-176.64 176.64-176.64 337.92-335.36 176.64 176.64-337.92 335.36 337.92 335.36z" />
<glyph unicode="&#xe914;" glyph-name="arrow-right-big" horiz-adv-x="691" d="M176.64 950.857l337.92-335.36 176.64-176.64-176.64-176.64-337.92-335.36-176.64 176.64 337.92 335.36-337.92 335.36z" />
<glyph unicode="&#xe915;" glyph-name="help-circle" d="M513.28 950.857c-282.88 0-513.28-229.12-513.28-512 1.28-284.16 226.56-510.72 509.44-512 285.44-1.28 512 225.28 514.56 510.72 1.28 282.88-229.12 513.28-510.72 513.28zM512-24.503c-256 0-463.36 207.36-463.36 463.36s207.36 463.36 464.64 463.36c254.72 0 462.080-208.64 462.080-463.36 0-257.28-207.36-463.36-463.36-463.36zM590.080 715.337c-40.96 12.8-83.2 14.080-126.72 7.68-40.96-7.68-76.8-25.6-104.96-57.6-24.32-26.88-37.12-57.6-40.96-92.16 0-5.12 0-5.12 5.12-5.12 29.44-3.84 57.6-7.68 87.040-11.52 2.56 0 2.56 0 3.84 2.56 2.56 10.24 5.12 19.2 8.96 28.16 11.52 25.6 29.44 44.8 56.32 55.040 17.92 6.4 35.84 7.68 55.040 5.12 15.36-1.28 28.16-6.4 40.96-15.36 39.68-28.16 39.68-78.080 7.68-106.24-10.24-8.96-20.48-17.92-30.72-26.88-17.92-14.080-35.84-29.44-51.2-46.080-21.76-21.76-33.28-48.64-37.12-79.36-1.28-16.64-1.28-34.56-1.28-51.2 0-2.56 1.28-2.56 2.56-2.56 14.080 0 29.44 0 43.52 0s29.44 0 43.52 0c2.56 0 3.84 1.28 3.84 3.84 0 7.68 0 16.64 0 24.32 1.28 20.48 7.68 38.4 23.040 52.48 11.52 11.52 24.32 21.76 37.12 33.28 21.76 19.2 43.52 37.12 61.44 60.16 33.28 40.96 38.4 96 11.52 142.080-21.76 39.68-56.32 65.28-98.56 79.36zM552.96 285.257c-29.44 0-58.88 0-88.32 0-2.56 0-2.56-1.28-2.56-2.56 0-32 0-65.28 0-97.28 0-2.56 1.28-2.56 2.56-2.56 29.44 0 58.88 0 88.32 0 2.56 0 2.56 1.28 2.56 2.56 0 16.64 0 32 0 48.64s0 32 0 48.64c0 1.28 0 2.56-2.56 2.56z" />
<glyph unicode="&#xe916;" glyph-name="keyboard_voice" d="M738 438.857h72c0-146-116-266-256-286v-140h-84v140c-140 20-256 140-256 286h72c0-128 108-218 226-218s226 90 226 218zM512 310.857c-70 0-128 58-128 128v256c0 70 58 128 128 128s128-58 128-128v-256c0-70-58-128-128-128z" />
<glyph unicode="&#xe917;" glyph-name="scan" d="M222.359 539.066c-23.921 0-43.205 19.28-43.205 43.205v78.547c0 61.055 49.627 110.328 110.328 110.328h138.887c23.921 0 43.205-19.28 43.205-43.205s-19.28-43.205-43.205-43.205h-138.887c-13.212 0-23.921-10.713-23.921-23.921v-78.547c0-23.921-19.28-43.205-43.205-43.205zM801.122 539.066c-23.921 0-43.205 19.28-43.205 43.205v78.547c0 13.212-10.713 23.921-23.921 23.921h-138.887c-23.921 0-43.205 19.28-43.205 43.205s19.28 43.205 43.205 43.205h138.889c61.055 0 110.328-49.627 110.328-110.328v-78.547c0-23.921-19.28-43.205-43.205-43.205zM428.371 106.33h-138.887c-61.055 0-110.328 49.627-110.328 110.328v78.547c0 23.921 19.28 43.205 43.205 43.205s43.205-19.28 43.205-43.205v-78.547c0-13.212 10.713-23.921 23.921-23.921h138.887c23.921 0 43.205-19.28 43.205-43.205s-19.28-43.205-43.205-43.205zM733.999 105.974h-138.887c-23.921 0-43.205 19.28-43.205 43.205s19.28 43.205 43.205 43.205h138.889c13.212 0 23.921 10.713 23.921 23.921v78.547c0 23.921 19.28 43.205 43.205 43.205s43.205-19.28 43.205-43.205v-78.547c0-61.055-49.273-110.328-110.328-110.328zM812.551 403.745h-601.975c-18.569 0-34.631 16.069-34.631 34.631v0c0 18.569 16.069 34.633 34.631 34.633h601.975c18.569 0 34.631-16.069 34.631-34.633v0c0.357-18.207-16.069-34.631-34.631-34.631z" />
<glyph unicode="&#xe918;" glyph-name="return-back" d="M402.265 730.449v183.846c-0.006 20.199-16.384 36.568-36.583 36.562-10.359-0.002-20.229-4.399-27.163-12.094l-329.144-365.719c-12.037-13.406-12.519-33.579-1.134-47.544l329.146-402.289c12.789-15.632 35.829-17.938 51.463-5.149 8.469 6.928 13.391 17.284 13.414 28.226v182.237c288.918-9.399 469.215-132.901 550.48-376.69 4.984-14.914 18.945-24.971 34.67-24.977 1.971-0.006 3.943 0.154 5.889 0.476 17.692 2.886 30.684 18.169 30.684 36.097-0.002 430.669-259.258 747.052-621.722 767.020z" />
<glyph unicode="&#xe9d9;" glyph-name="star-full-fill" d="M1024 562.95l-353.78 51.408-158.22 320.582-158.216-320.582-353.784-51.408 256-249.538-60.432-352.352 316.432 166.358 316.432-166.358-60.434 352.352 256.002 249.538z" />
<glyph unicode="&#xea87;" glyph-name="amazon" d="M925.6 74.8c-112.2-82.8-274.6-126.8-414.6-126.8-196.2 0-372.8 72.4-506.4 193.2-10.4 9.4-1.2 22.4 11.4 15 144.2-84 322.6-134.4 506.8-134.4 124.2 0 260.8 25.8 386.6 79.2 18.8 8 34.8-12.6 16.2-26.2zM972.2 128c-14.4 18.4-94.8 8.8-131 4.4-11-1.2-12.6 8.2-2.8 15.2 64.2 45 169.4 32 181.6 17 12.4-15.2-3.2-120.6-63.4-171-9.2-7.8-18-3.6-14 6.6 13.8 33.8 44 109.4 29.6 127.8zM707.4 202.4l0.2-0.2c24.8 21.8 69.4 60.8 94.6 81.8 10 8 8.2 21.4 0.4 32.6-22.6 31.2-46.6 56.6-46.6 114.2v192c0 81.4 5.6 156-54.2 212-47.2 45.2-125.6 61.2-185.6 61.2-117.2 0-248-43.8-275.4-188.6-3-15.4 8.4-23.6 18.4-25.8l119.4-13c11.2 0.6 19.2 11.6 21.4 22.8 10.2 49.8 52 74 99 74 25.4 0 54.2-9.2 69.2-32 17.2-25.4 15-60 15-89.4v-16c-71.4-8-164.8-13.2-231.6-42.6-77.2-33.4-131.4-101.4-131.4-201.4 0-128 80.6-192 184.4-192 87.6 0 135.4 20.6 203 89.8 22.4-32.4 29.6-48.2 70.6-82.2 9.4-5 21-4.6 29.2 2.8zM583.2 502.8c0-48 1.2-88-23-130.6-19.6-34.8-50.6-56-85.2-56-47.2 0-74.8 36-74.8 89.2 0 105 94.2 124 183.2 124v-26.6z" />
<glyph unicode="&#xf003;" glyph-name="envelope-o" d="M950.857 91.428v438.857q-18.286-20.571-39.429-37.714-153.143-117.714-243.429-193.143-29.143-24.571-47.429-38.286t-49.429-27.714-58.571-14h-1.143q-27.429 0-58.571 14t-49.429 27.714-47.429 38.286q-90.286 75.429-243.429 193.143-21.143 17.143-39.429 37.714v-438.857q0-7.429 5.429-12.857t12.857-5.429h841.143q7.429 0 12.857 5.429t5.429 12.857zM950.857 692v14t-0.286 7.429-1.714 7.143-3.143 5.143-5.143 4.286-8 1.429h-841.143q-7.429 0-12.857-5.429t-5.429-12.857q0-96 84-162.286 110.286-86.857 229.143-181.143 3.429-2.857 20-16.857t26.286-21.429 25.429-18 28.857-15.714 24.571-5.143h1.143q11.429 0 24.571 5.143t28.857 15.714 25.429 18 26.286 21.429 20 16.857q118.857 94.286 229.143 181.143 30.857 24.571 57.429 66t26.571 75.143zM1024 713.143v-621.714q0-37.714-26.857-64.571t-64.571-26.857h-841.143q-37.714 0-64.571 26.857t-26.857 64.571v621.714q0 37.714 26.857 64.571t64.571 26.857h841.143q37.714 0 64.571-26.857t26.857-64.571z" />
<glyph unicode="&#xf004;" glyph-name="heart" d="M512 0q-14.857 0-25.143 10.286l-356.571 344q-5.714 4.571-15.714 14.857t-31.714 37.429-38.857 55.714-30.571 69.143-13.429 78.857q0 125.714 72.571 196.571t200.571 70.857q35.429 0 72.286-12.286t68.571-33.143 54.571-39.143 43.429-38.857q20.571 20.571 43.429 38.857t54.571 39.143 68.571 33.143 72.286 12.286q128 0 200.571-70.857t72.571-196.571q0-126.286-130.857-257.143l-356-342.857q-10.286-10.286-25.143-10.286z" />
<glyph unicode="&#xf007;" glyph-name="login-user" horiz-adv-x="805" d="M804.571 148q0-68.571-41.714-108.286t-110.857-39.714h-499.429q-69.143 0-110.857 39.714t-41.714 108.286q0 30.286 2 59.143t8 62.286 15.143 62 24.571 55.714 35.429 46.286 48.857 30.571 63.714 11.429q5.143 0 24-12.286t42.571-27.429 61.714-27.429 76.286-12.286 76.286 12.286 61.714 27.429 42.571 27.429 24 12.286q34.857 0 63.714-11.429t48.857-30.571 35.429-46.286 24.571-55.714 15.143-62 8-62.286 2-59.143zM621.714 658.286q0-90.857-64.286-155.143t-155.143-64.286-155.143 64.286-64.286 155.143 64.286 155.143 155.143 64.286 155.143-64.286 64.286-155.143z" />
<glyph unicode="&#xf021;" glyph-name="refresh" horiz-adv-x="878" d="M863.429 347.428c0-1.143 0-2.857-0.571-4-48.571-202.286-215.429-343.429-426.286-343.429-111.429 0-219.429 44-300.571 121.143l-73.714-73.714c-6.857-6.857-16-10.857-25.714-10.857-20 0-36.571 16.571-36.571 36.571v256c0 20 16.571 36.571 36.571 36.571h256c20 0 36.571-16.571 36.571-36.571 0-9.714-4-18.857-10.857-25.714l-78.286-78.286c53.714-50.286 125.143-78.857 198.857-78.857 101.714 0 196 52.571 249.143 139.429 13.714 22.286 20.571 44 30.286 66.857 2.857 8 8.571 13.143 17.143 13.143h109.714c10.286 0 18.286-8.571 18.286-18.286zM877.714 804.571v-256c0-20-16.571-36.571-36.571-36.571h-256c-20 0-36.571 16.571-36.571 36.571 0 9.714 4 18.857 10.857 25.714l78.857 78.857c-54.286 50.286-125.714 78.286-199.429 78.286-101.714 0-196-52.571-249.143-139.429-13.714-22.286-20.571-44-30.286-66.857-2.857-8-8.571-13.143-17.143-13.143h-113.714c-10.286 0-18.286 8.571-18.286 18.286v4c49.143 202.857 217.714 343.429 428.571 343.429 112 0 221.143-44.571 302.286-121.143l74.286 73.714c6.857 6.857 16 10.857 25.714 10.857 20 0 36.571-16.571 36.571-36.571z" />
<glyph unicode="&#xf023;" glyph-name="lock" horiz-adv-x="658" d="M182.857 512h292.571v109.714q0 60.571-42.857 103.429t-103.429 42.857-103.429-42.857-42.857-103.429v-109.714zM658.286 457.143v-329.143q0-22.857-16-38.857t-38.857-16h-548.571q-22.857 0-38.857 16t-16 38.857v329.143q0 22.857 16 38.857t38.857 16h18.286v109.714q0 105.143 75.429 180.571t180.571 75.429 180.571-75.429 75.429-180.571v-109.714h18.286q22.857 0 38.857-16t16-38.857z" />
<glyph unicode="&#xf046;" glyph-name="check-box-check" horiz-adv-x="951" d="M804.571 419.428v-181.714q0-68-48.286-116.286t-116.286-48.286h-475.429q-68 0-116.286 48.286t-48.286 116.286v475.429q0 68 48.286 116.286t116.286 48.286h475.429q36 0 66.857-14.286 8.571-4 10.286-13.143 1.714-9.714-5.143-16.571l-28-28q-5.714-5.714-13.143-5.714-1.714 0-5.143 1.143-13.143 3.429-25.714 3.429h-475.429q-37.714 0-64.571-26.857t-26.857-64.571v-475.429q0-37.714 26.857-64.571t64.571-26.857h475.429q37.714 0 64.571 26.857t26.857 64.571v145.143q0 7.429 5.143 12.571l36.571 36.571q5.714 5.714 13.143 5.714 3.429 0 6.857-1.714 11.429-4.571 11.429-16.571zM936.571 698.857l-465.143-465.143q-13.714-13.714-32.571-13.714t-32.571 13.714l-245.714 245.714q-13.714 13.714-13.714 32.571t13.714 32.571l62.857 62.857q13.714 13.714 32.571 13.714t32.571-13.714l150.286-150.286 369.714 369.714q13.714 13.714 32.571 13.714t32.571-13.714l62.857-62.857q13.714-13.714 13.714-32.571t-13.714-32.571z" />
<glyph unicode="&#xf04a;" glyph-name="backward" horiz-adv-x="951" d="M925.143 870.286q10.857 10.857 18.286 7.429t7.429-18.286v-841.143q0-14.857-7.429-18.286t-18.286 7.429l-405.714 405.714q-4.571 5.143-7.429 10.857v-405.714q0-14.857-7.429-18.286t-18.286 7.429l-405.714 405.714q-10.857 10.857-10.857 25.714t10.857 25.714l405.714 405.714q10.857 10.857 18.286 7.429t7.429-18.286v-405.714q2.857 6.286 7.429 10.857z" />
<glyph unicode="&#xf04d;" glyph-name="swatch-box" horiz-adv-x="878" d="M877.714 713.143v-548.571c0-90.857-73.714-164.571-164.571-164.571h-548.571c-90.857 0-164.571 73.714-164.571 164.571v548.571c0 90.857 73.714 164.571 164.571 164.571h548.571c90.857 0 164.571-73.714 164.571-164.571z" />
<glyph unicode="&#xf04e;" glyph-name="forward" horiz-adv-x="951" d="M25.714 7.428q-10.857-10.857-18.286-7.429t-7.429 18.286v841.143q0 14.857 7.429 18.286t18.286-7.429l405.714-405.714q4.571-4.571 7.429-10.857v405.714q0 14.857 7.429 18.286t18.286-7.429l405.714-405.714q10.857-10.857 10.857-25.714t-10.857-25.714l-405.714-405.714q-10.857-10.857-18.286-7.429t-7.429 18.286v405.714q-2.857-5.714-7.429-10.857z" />
<glyph unicode="&#xf057;" glyph-name="close-circle" horiz-adv-x="878" d="M656.571 309.714c0 9.714-4 18.857-10.857 25.714l-103.429 103.429 103.429 103.429c6.857 6.857 10.857 16 10.857 25.714s-4 19.429-10.857 26.286l-51.429 51.429c-6.857 6.857-16.571 10.857-26.286 10.857s-18.857-4-25.714-10.857l-103.429-103.429-103.429 103.429c-6.857 6.857-16 10.857-25.714 10.857s-19.429-4-26.286-10.857l-51.429-51.429c-6.857-6.857-10.857-16.571-10.857-26.286s4-18.857 10.857-25.714l103.429-103.429-103.429-103.429c-6.857-6.857-10.857-16-10.857-25.714s4-19.429 10.857-26.286l51.429-51.429c6.857-6.857 16.571-10.857 26.286-10.857s18.857 4 25.714 10.857l103.429 103.429 103.429-103.429c6.857-6.857 16-10.857 25.714-10.857s19.429 4 26.286 10.857l51.429 51.429c6.857 6.857 10.857 16.571 10.857 26.286zM877.714 438.857c0-242.286-196.571-438.857-438.857-438.857s-438.857 196.571-438.857 438.857 196.571 438.857 438.857 438.857 438.857-196.571 438.857-438.857z" />
<glyph unicode="&#xf073;" glyph-name="calendar" horiz-adv-x="951" d="M73.143 0h164.571v164.571h-164.571v-164.571zM274.286 0h182.857v164.571h-182.857v-164.571zM73.143 201.143h164.571v182.857h-164.571v-182.857zM274.286 201.143h182.857v182.857h-182.857v-182.857zM73.143 420.571h164.571v164.571h-164.571v-164.571zM493.714 0h182.857v164.571h-182.857v-164.571zM274.286 420.571h182.857v164.571h-182.857v-164.571zM713.143 0h164.571v164.571h-164.571v-164.571zM493.714 201.143h182.857v182.857h-182.857v-182.857zM292.571 694.857v164.571q0 7.429-5.429 12.857t-12.857 5.429h-36.571q-7.429 0-12.857-5.429t-5.429-12.857v-164.571q0-7.429 5.429-12.857t12.857-5.429h36.571q7.429 0 12.857 5.429t5.429 12.857zM713.143 201.143h164.571v182.857h-164.571v-182.857zM493.714 420.571h182.857v164.571h-182.857v-164.571zM713.143 420.571h164.571v164.571h-164.571v-164.571zM731.429 694.857v164.571q0 7.429-5.429 12.857t-12.857 5.429h-36.571q-7.429 0-12.857-5.429t-5.429-12.857v-164.571q0-7.429 5.429-12.857t12.857-5.429h36.571q7.429 0 12.857 5.429t5.429 12.857zM950.857 731.428v-731.429q0-29.714-21.714-51.429t-51.429-21.714h-804.571q-29.714 0-51.429 21.714t-21.714 51.429v731.429q0 29.714 21.714 51.429t51.429 21.714h73.143v54.857q0 37.714 26.857 64.571t64.571 26.857h36.571q37.714 0 64.571-26.857t26.857-64.571v-54.857h219.429v54.857q0 37.714 26.857 64.571t64.571 26.857h36.571q37.714 0 64.571-26.857t26.857-64.571v-54.857h73.143q29.714 0 51.429-21.714t21.714-51.429z" />
<glyph unicode="&#xf074;" glyph-name="random" d="M380.571 676q-34.286-52.571-78.286-156-12.571 25.714-21.143 41.429t-23.143 36.286-29.143 32.286-36 20-46.571 8.286h-128q-8 0-13.143 5.143t-5.143 13.143v109.714q0 8 5.143 13.143t13.143 5.143h128q142.857 0 234.286-128.571zM1024 219.428q0-8-5.143-13.143l-182.857-182.857q-5.143-5.143-13.143-5.143-7.429 0-12.857 5.429t-5.429 12.857v109.714q-18.286 0-48.571-0.286t-46.286-0.571-41.714 0.571-40.571 2.857-36.571 6-36 10.571-33.143 16.286-33.714 22.857-31.429 30.571-32 39.714q33.714 53.143 77.714 156 12.571-25.714 21.143-41.429t23.143-36.286 29.143-32.286 36-20 46.571-8.286h146.286v109.714q0 8 5.143 13.143t13.143 5.143q6.857 0 13.714-5.714l182.286-182.286q5.143-5.143 5.143-13.143zM1024 731.428q0-8-5.143-13.143l-182.857-182.857q-5.143-5.143-13.143-5.143-7.429 0-12.857 5.429t-5.429 12.857v109.714h-146.286q-27.429 0-49.714-8.571t-39.429-25.714-29.143-35.143-25.714-44.286q-18.286-35.429-44.571-97.714-16.571-37.714-28.286-63.429t-30.857-60-36.571-57.143-42.286-47.429-51.429-39.143-60.857-24-73.143-9.429h-128q-8 0-13.143 5.143t-5.143 13.143v109.714q0 8 5.143 13.143t13.143 5.143h128q27.429 0 49.714 8.571t39.429 25.714 29.143 35.143 25.714 44.286q18.286 35.429 44.571 97.714 16.571 37.714 28.286 63.429t30.857 60 36.571 57.143 42.286 47.429 51.429 39.143 60.857 24 73.143 9.429h146.286v109.714q0 8 5.143 13.143t13.143 5.143q6.857 0 13.714-5.714l182.286-182.286q5.143-5.143 5.143-13.143z" />
<glyph unicode="&#xf081;" glyph-name="twitter" d="M731.429 602.286q-32-14.286-69.143-19.429 38.857 22.857 53.143 66.857-37.143-21.714-76.571-29.143-34.857 37.714-87.429 37.714-49.714 0-84.857-35.143t-35.143-84.857q0-16.571 2.857-27.429-73.714 4-138.286 37.143t-109.714 88.571q-16.571-28.571-16.571-60.571 0-65.143 52-100-26.857 0.571-57.143 14.857v-1.143q0-42.857 28.571-76.286t70.286-41.429q-16.571-4.571-29.143-4.571-7.429 0-22.286 2.286 12-36 42.571-59.429t69.429-24q-66.286-51.429-149.143-51.429-14.857 0-28.571 1.714 84.571-53.714 184-53.714 64 0 120 20.286t96 54.286 68.857 78.286 42.857 92.571 14 96.286q0 10.286-0.571 15.429 36 25.714 60 62.286zM877.714 713.143v-548.571q0-68-48.286-116.286t-116.286-48.286h-548.571q-68 0-116.286 48.286t-48.286 116.286v548.571q0 68 48.286 116.286t116.286 48.286h548.571q68 0 116.286-48.286t48.286-116.286z" />
<glyph unicode="&#xf082;" glyph-name="facebook" d="M713.143 877.714q68 0 116.286-48.286t48.286-116.286v-548.571q0-68-48.286-116.286t-116.286-48.286h-107.429v340h113.714l17.143 132.571h-130.857v84.571q0 32 13.429 48t52.286 16l69.714 0.571v118.286q-36 5.143-101.714 5.143-77.714 0-124.286-45.714t-46.571-129.143v-97.714h-114.286v-132.571h114.286v-340h-304q-68 0-116.286 48.286t-48.286 116.286v548.571q0 68 48.286 116.286t116.286 48.286h548.571z" />
<glyph unicode="&#xf096;" glyph-name="check-box" horiz-adv-x="805" d="M640 804.571h-475.429q-37.714 0-64.571-26.857t-26.857-64.571v-475.429q0-37.714 26.857-64.571t64.571-26.857h475.429q37.714 0 64.571 26.857t26.857 64.571v475.429q0 37.714-26.857 64.571t-64.571 26.857zM804.571 713.143v-475.429q0-68-48.286-116.286t-116.286-48.286h-475.429q-68 0-116.286 48.286t-48.286 116.286v475.429q0 68 48.286 116.286t116.286 48.286h475.429q68 0 116.286-48.286t48.286-116.286z" />
<glyph unicode="&#xf0a9;" glyph-name="arrow-circle-right" d="M734.286 438.857q0 15.429-10.286 25.714l-258.857 258.857q-10.286 10.286-25.714 10.286t-25.714-10.286l-52-52q-10.286-10.286-10.286-25.714t10.286-25.714l108-108h-286.857q-14.857 0-25.714-10.857t-10.857-25.714v-73.143q0-14.857 10.857-25.714t25.714-10.857h286.857l-108-108q-10.857-10.857-10.857-25.714t10.857-25.714l52-52q10.286-10.286 25.714-10.286t25.714 10.286l258.857 258.857q10.286 10.286 10.286 25.714zM877.714 438.857q0-119.429-58.857-220.286t-159.714-159.714-220.286-58.857-220.286 58.857-159.714 159.714-58.857 220.286 58.857 220.286 159.714 159.714 220.286 58.857 220.286-58.857 159.714-159.714 58.857-220.286z" />
<glyph unicode="&#xf0d3;" glyph-name="pinterest-square" d="M713.143 877.714q68 0 116.286-48.286t48.286-116.286v-548.571q0-68-48.286-116.286t-116.286-48.286h-414.286q48.571 69.714 61.714 120 5.143 19.429 30.286 119.429 12-22.286 42-38.286t64.286-16q103.429 0 168.857 84.286t65.429 213.429q0 48-20 92.857t-55.143 79.429-87.143 55.429-112.571 20.857q-59.429 0-111.143-16.286t-87.429-43.714-61.429-62.571-38-73.143-12.286-75.714q0-58.286 22.571-102.857t66.571-62.857q7.429-2.857 13.429 0t8.286 10.857q5.714 25.143 8.571 34.857 3.429 13.143-6.286 24-28.571 35.429-28.571 85.714 0 85.714 59.143 146.571t154.571 60.857q85.143 0 132.857-46.286t47.714-120q0-96-38.571-163.429t-99.143-67.429q-34.286 0-55.429 24.857t-13.143 59.143q4.571 19.429 15.143 52.857t16.857 58.286 6.286 42.571q0 28-15.143 46.571t-43.143 18.571q-34.857 0-59.143-32.286t-24.286-79.714q0-41.143 13.714-69.143l-56-236.571q-13.714-57.143-4-145.143h-104.571q-68 0-116.286 48.286t-48.286 116.286v548.571q0 68 48.286 116.286t116.286 48.286h548.571z" />
<glyph unicode="&#xf0d4;" glyph-name="google-plus-square" d="M473.714 254.857q0-43.429-33.429-64.286t-79.714-20.857q-23.429 0-46 5.429t-43.143 16.286-33.143 30.286-12.571 44.571q0 26.286 14.286 45.714t37.429 29.429 46.857 14.286 48.286 4.286q11.429 0 17.714-1.143 1.143-0.571 13.143-9.429t14.857-10.857 13.143-10.286 14-12.571 10.857-12.857 9.714-14.857 5.143-15.143 2.571-18zM431.429 566.286q0-34.286-18.857-56.857t-52.571-22.571q-30.286 0-53.143 24.286t-32.857 55.143-10 60.571q0 34.857 18.286 59.429t52.571 24.571q30.286 0 53.429-25.714t33.143-57.714 10-61.143zM492 713.143l50.286 36.571h-151.429q-48.571 0-92-18.286t-72.857-56-29.429-87.429q0-53.143 36.857-88.286t90.571-35.143q12.571 0 24.571 1.714-7.429-16.571-7.429-30.857 0-25.143 22.857-53.714-100-6.857-146.857-36-26.857-16.571-43.143-41.714t-16.286-54.286q0-24.571 10.571-44.286t27.714-32.286 39.429-21.143 44.286-12 43.714-3.429q34.286 0 68.857 8.857t64.857 26.286 49.143 47.143 18.857 66.857q0 28-11.429 51.143t-28 38-33.143 27.143-28 25.143-11.429 25.429 8.857 24.286 21.429 22.571 25.143 24 21.429 34 8.857 47.143q0 34.286-12.857 56.857t-41.429 51.714h47.429zM658.286 457.143h73.143v36.571h-73.143v73.143h-36.571v-73.143h-73.143v-36.571h73.143v-91.429h36.571v91.429zM877.714 713.143v-548.571q0-68-48.286-116.286t-116.286-48.286h-548.571q-68 0-116.286 48.286t-48.286 116.286v548.571q0 68 48.286 116.286t116.286 48.286h548.571q68 0 116.286-48.286t48.286-116.286z" />
<glyph unicode="&#xf0d9;" glyph-name="first" d="M787.2 40.777c0 0-20.48 15.36-25.6 19.2-174.080 128-346.88 257.28-520.96 385.28-2.56 2.56-7.68 3.84-1.28 7.68 181.76 128 363.52 254.72 544 381.44 1.28 1.28 3.84 2.56 3.84 2.56v-796.16z" />
<glyph unicode="&#xf0da;" glyph-name="caret-right" horiz-adv-x="366" d="M329.143 438.857q0-14.857-10.857-25.714l-256-256q-10.857-10.857-25.714-10.857t-25.714 10.857-10.857 25.714v512q0 14.857 10.857 25.714t25.714 10.857 25.714-10.857l256-256q10.857-10.857 10.857-25.714z" />
<glyph unicode="&#xf0db;" glyph-name="last" d="M236.8 836.937c0 0 2.56-1.28 3.84-2.56 180.48-126.72 362.24-253.44 544-381.44 6.4-3.84 1.28-5.12-1.28-7.68-174.080-128-346.88-257.28-520.96-385.28-5.12-3.84-25.6-19.2-25.6-19.2v796.16z" />
<glyph unicode="&#xf0e0;" glyph-name="envelope" d="M1024 545.143v-453.714q0-37.714-26.857-64.571t-64.571-26.857h-841.143q-37.714 0-64.571 26.857t-26.857 64.571v453.714q25.143-28 57.714-49.714 206.857-140.571 284-197.143 32.571-24 52.857-37.429t54-27.429 62.857-14h1.143q29.143 0 62.857 14t54 27.429 52.857 37.429q97.143 70.286 284.571 197.143 32.571 22.286 57.143 49.714zM1024 713.143q0-45.143-28-86.286t-69.714-70.286q-214.857-149.143-267.429-185.714-5.714-4-24.286-17.429t-30.857-21.714-29.714-18.571-32.857-15.429-28.571-5.143h-1.143q-13.143 0-28.571 5.143t-32.857 15.429-29.714 18.571-30.857 21.714-24.286 17.429q-52 36.571-149.714 104.286t-117.143 81.429q-35.429 24-66.857 66t-31.429 78q0 44.571 23.714 74.286t67.714 29.714h841.143q37.143 0 64.286-26.857t27.143-64.571z" />
<glyph unicode="&#xf105;" glyph-name="arrow-right-small" horiz-adv-x="366" d="M340 402.286q0-7.429-5.714-13.143l-266.286-266.286q-5.714-5.714-13.143-5.714t-13.143 5.714l-28.571 28.571q-5.714 5.714-5.714 13.143t5.714 13.143l224.571 224.571-224.571 224.571q-5.714 5.714-5.714 13.143t5.714 13.143l28.571 28.571q5.714 5.714 13.143 5.714t13.143-5.714l266.286-266.286q5.714-5.714 5.714-13.143z" />
<glyph unicode="&#xf107;" glyph-name="arrow-down-small" horiz-adv-x="658" d="M614.286 530.286q0-7.429-5.714-13.143l-266.286-266.286q-5.714-5.714-13.143-5.714t-13.143 5.714l-266.286 266.286q-5.714 5.714-5.714 13.143t5.714 13.143l28.571 28.571q5.714 5.714 13.143 5.714t13.143-5.714l224.571-224.571 224.571 224.571q5.714 5.714 13.143 5.714t13.143-5.714l28.571-28.571q5.714-5.714 5.714-13.143z" />
<glyph unicode="&#xf10c;" glyph-name="radio-button" d="M438.857 749.714q-84.571 0-156-41.714t-113.143-113.143-41.714-156 41.714-156 113.143-113.143 156-41.714 156 41.714 113.143 113.143 41.714 156-41.714 156-113.143 113.143-156 41.714zM877.714 438.857q0-119.429-58.857-220.286t-159.714-159.714-220.286-58.857-220.286 58.857-159.714 159.714-58.857 220.286 58.857 220.286 159.714 159.714 220.286 58.857 220.286-58.857 159.714-159.714 58.857-220.286z" />
<glyph unicode="&#xf166;" glyph-name="youtube-square" d="M525.143 206.286v89.714q0 28.571-16.571 28.571-9.714 0-18.857-9.143v-128q9.143-9.143 18.857-9.143 16.571 0 16.571 28zM630.286 276h37.714v19.429q0 29.143-18.857 29.143t-18.857-29.143v-19.429zM304 428v-40h-45.714v-241.714h-42.286v241.714h-44.571v40h132.571zM418.857 356v-209.714h-38.286v22.857q-22.286-25.714-43.429-25.714-18.857 0-24 16-3.429 9.143-3.429 30.857v165.714h37.714v-154.286q0-13.714 0.571-14.857 0.571-8.571 8.571-8.571 11.429 0 24 17.714v160h38.286zM562.857 292.571v-83.429q0-29.714-4-41.714-6.857-24-30.286-24-20 0-38.857 23.429v-20.571h-38.286v281.714h38.286v-92q18.286 22.857 38.857 22.857 23.429 0 30.286-24 4-12 4-42.286zM706.286 218.857v-5.143q0-16.571-1.143-24.571-1.714-12.571-8.571-22.857-15.429-22.857-45.714-22.857-29.714 0-46.286 21.714-12 15.429-12 49.143v73.714q0 33.714 11.429 49.143 16.571 21.714 45.714 21.714t44.571-21.714q12-16 12-49.143v-43.429h-76v-37.143q0-29.143 19.429-29.143 13.714 0 17.143 14.857 0 0.571 0.286 4t0.286 9.429v12.286h38.857zM448.571 689.714v-89.143q0-29.143-18.286-29.143t-18.286 29.143v89.143q0 29.714 18.286 29.714t18.286-29.714zM753.143 282.286q0 101.143-10.857 148.571-5.714 25.143-24.571 42t-43.429 19.714q-77.714 8.571-235.429 8.571-157.143 0-234.857-8.571-25.143-2.857-43.714-19.714t-24.286-42q-11.429-49.714-11.429-148.571 0-100.571 11.429-148.571 5.714-24.571 24.286-41.714t43.143-20q78.286-8.571 235.429-8.571t235.429 8.571q24.571 2.857 43.143 20t24.286 41.714q11.429 48 11.429 148.571zM321.714 654.286l51.429 169.143h-42.857l-29.143-111.429-30.286 111.429h-44.571l13.714-39.429t13.143-39.429q20-58.857 26.286-90.286v-114.857h42.286v114.857zM486.857 608v74.286q0 33.143-12 49.714-16.571 21.714-44.571 21.714-29.143 0-44.571-21.714-12-16.571-12-49.714v-74.286q0-33.143 12-49.714 15.429-21.714 44.571-21.714 28 0 44.571 21.714 12 15.429 12 49.714zM590.286 539.428h38.286v211.429h-38.286v-161.714q-12.571-17.714-24-17.714-8.571 0-9.143 9.143-0.571 1.143-0.571 14.857v155.429h-38.286v-167.429q0-21.143 3.429-31.429 6.286-15.429 24.571-15.429 20.571 0 44 25.714v-22.857zM877.714 713.143v-548.571q0-68-48.286-116.286t-116.286-48.286h-548.571q-68 0-116.286 48.286t-48.286 116.286v548.571q0 68 48.286 116.286t116.286 48.286h548.571q68 0 116.286-48.286t48.286-116.286z" />
<glyph unicode="&#xf192;" glyph-name="radio-button-check" d="M585.143 438.857q0-60.571-42.857-103.429t-103.429-42.857-103.429 42.857-42.857 103.429 42.857 103.429 103.429 42.857 103.429-42.857 42.857-103.429zM438.857 749.714q-84.571 0-156-41.714t-113.143-113.143-41.714-156 41.714-156 113.143-113.143 156-41.714 156 41.714 113.143 113.143 41.714 156-41.714 156-113.143 113.143-156 41.714zM877.714 438.857q0-119.429-58.857-220.286t-159.714-159.714-220.286-58.857-220.286 58.857-159.714 159.714-58.857 220.286 58.857 220.286 159.714 159.714 220.286 58.857 220.286-58.857 159.714-159.714 58.857-220.286z" />
<glyph unicode="&#xf1f0;" glyph-name="visa-payment" horiz-adv-x="1317" d="M1128.571 385.143h-78.857q8 21.143 37.714 102.286l1.714 5.143q2.286 5.714 5.714 14.857t5.143 14.857l6.857-31.429zM303.429 422.286l-33.143 168.571q-6.286 30.857-42.857 30.857h-153.143l-1.143-7.429q177.714-45.143 230.286-192zM405.714 621.714l-92.571-250.286-9.714 50.857q-14.857 40-48.571 74t-74.857 50.571l77.143-291.429h100l149.143 366.286h-100.571zM485.143 254.857h94.857l59.429 366.857h-94.857zM924 612.571q-39.429 15.429-85.143 15.429-70.286 0-114.857-33.714t-45.143-87.429q-0.571-58.286 82.857-99.429 27.429-13.143 38.286-23.429t10.857-22.286q0-17.143-17.143-26.286t-39.429-9.143q-49.143 0-89.143 18.857l-12.571 6.286-13.143-82.286q42.286-19.429 105.714-19.429 74.286-0.571 119.143 33.714t46 91.429q0 60.571-80 99.429-28 14.286-40.571 24t-12.571 21.714q0 12.571 14 22t40.286 9.429q40 0.571 70.857-13.714l8.571-4.571zM1166.857 621.714h-73.143q-37.143 0-49.714-30.857l-140.571-336h99.429l20 54.857h121.143q2.857-12.571 11.429-54.857h88zM1316.571 804.571v-731.429q0-29.714-21.714-51.429t-51.429-21.714h-1170.286q-29.714 0-51.429 21.714t-21.714 51.429v731.429q0 29.714 21.714 51.429t51.429 21.714h1170.286q29.714 0 51.429-21.714t21.714-51.429z" />
<glyph unicode="&#xf1f1;" glyph-name="mastercard-payment" horiz-adv-x="1317" d="M383.429 417.714h-7.429q-26.857 0-26.857-18.286 0-12.571 11.429-12.571 9.714 0 16 8.571t6.857 22.286zM609.143 438.286h35.429v1.714q0.571 2.286 0.286 3.714t-0.571 4-1.143 4.571-2.571 3.714-4.286 2.857-6.571 1.143q-16 0-20.571-21.714zM917.714 417.714h-6.857q-27.429 0-27.429-18.286 0-12.571 11.429-12.571 9.714 0 16 8.571t6.857 22.286zM1100 432.571q0 23.429-17.143 23.429-10.857 0-17.714-11.429t-6.857-29.143q0-24 16-24 11.429 0 18.571 11.429t7.143 29.714zM274.286 513.143h49.714l-25.143-149.714h-32l18.286 114.857-40.571-114.857h-22.286l-2.286 114.286-19.429-114.286h-30.286l25.143 149.714h46.286l1.143-93.143zM418.857 452q0-3.429-2.286-24-9.143-57.714-9.714-64.571h-26.857l0.571 12.571q-11.429-14.857-33.143-14.857-13.143 0-21.429 9.143t-8.286 24q0 22.286 14.857 34.571t41.714 12.286q8 0 13.143-0.571 0 1.714 0.286 3.143t0.571 2.571 0.286 1.714q0 11.429-20.571 11.429-16.571 0-33.714-5.714 0 2.286 4 27.429 21.714 6.286 38.286 6.286 42.286 0 42.286-35.429zM508 485.143l-4.571-28q-12.571 1.714-23.429 1.714-15.429 0-15.429-9.714 0-4.571 2.571-6.857t12.286-6.286q22.857-10.857 22.857-34.286 0-41.143-49.714-40.571-19.429 0-33.143 3.429 0 1.143 4 28 16.571-4.571 29.143-4.571 18.286 0 18.286 10.857 0 4-2.571 6.571t-12.286 7.143q-24.571 11.429-24.571 33.714 0 41.143 48 41.143 17.143 0 28.571-2.286zM558.286 485.143h16l-4-29.714h-16.571q-1.143-9.714-3.714-23.143t-4-22-1.429-10.286q0-9.143 10.857-9.143 4.571 0 9.143 1.143l-4.571-26.857q-12-4-22.857-4-24.571 0-25.714 26.857 0 6.857 4.571 32 1.714 11.429 14.286 83.429h31.429zM674.286 443.428q0-13.143-4-29.714h-63.429q-1.714-12.571 5.714-18.857t21.714-6.286q17.143 0 33.143 8l-5.143-30.857q-17.143-4.571-32.571-4.571-54.286 0-54.286 54.286 0 31.429 15.714 51.714t39.714 20.286q20 0 31.714-12t11.714-32zM753.714 485.714q-7.429-13.143-12.571-35.429-12.571 1.143-17.714-13.714t-14.286-73.143h-32l1.714 8q12.571 74.286 16.571 113.714h29.143l-1.714-18.857q8 12 14.571 16.857t16.286 2.571zM860.571 509.143l-5.143-32.571q-16 8-28.571 8-17.714 0-29.143-15.714t-11.429-40.286q0-17.143 7.714-26.857t22-9.714q12 0 27.429 7.429l-5.714-33.714q-16-4.571-28.571-4.571-25.714 0-40.857 17.429t-15.143 47.143q0 40 20.286 65.429t52.286 25.429q14.857 0 34.857-7.429zM953.143 452q0-10.286-2.286-24-7.429-45.143-9.714-64.571h-26.286l0.571 12.571q-11.429-14.857-33.714-14.857-13.143 0-21.143 9.143t-8 24q0 22.286 14.571 34.571t41.429 12.286q8.571 0 13.143-0.571 1.143 4 1.143 7.429 0 11.429-20.571 11.429-16.571 0-33.714-5.714 0 2.286 4.571 27.429 21.714 6.286 38.286 6.286 41.714 0 41.714-35.429zM1033.714 485.714q-8-13.714-12-35.429-13.143 1.143-18-13.143t-14.571-73.714h-32l1.714 8q10.857 59.429 16.571 113.714h29.714q0-6.286-2.286-18.857 8.571 12 15.143 16.857t15.714 2.571zM1114.286 513.143h32l-24.571-149.714h-30.286l1.714 10.857q-13.143-13.143-29.714-13.143-17.714 0-28.286 13.714t-10.571 36.571q0 30.286 15.714 52.571t36.857 22.286q17.714 0 30.286-16.571zM1177.714 438.857q0 84.571-41.429 156t-113.143 113.143-156.286 41.714q-103.429 0-187.429-62.857 72.571-66.286 97.714-162.286h-28.571q-25.143 85.714-90.286 144.571-65.143-58.857-90.286-144.571h-28.571q25.143 96 97.714 162.286-84 62.857-187.429 62.857-84.571 0-156.286-41.714t-113.143-113.143-41.429-156 41.429-156 113.143-113.143 156.286-41.714q103.429 0 187.429 62.857-68.571 63.429-94.286 150.857h28.571q26.286-78.857 86.857-133.143 60.571 54.286 86.857 133.143h28.571q-25.714-87.429-94.286-150.857 84-62.857 187.429-62.857 84.571 0 156.286 41.714t113.143 113.143 41.429 156zM1316.571 804.571v-731.429q0-29.714-21.714-51.429t-51.429-21.714h-1170.286q-29.714 0-51.429 21.714t-21.714 51.429v731.429q0 29.714 21.714 51.429t51.429 21.714h1170.286q29.714 0 51.429-21.714t21.714-51.429z" />
<glyph unicode="&#xf1f3;" glyph-name="amex-payment" horiz-adv-x="1317" d="M68 561.143h50.857l-25.714 61.714zM422.857 260.571l42.286 45.143-40 45.143h-93.143v-28h81.143v-31.429h-81.143v-30.857h90.857zM513.143 305.143l56.571-62.857v124zM677.714 332q0 18.857-22.857 18.857h-48v-39.429h47.429q23.429 0 23.429 20.571zM842.857 334.286q0 16.571-24 16.571h-46.857v-34.857h46.286q24.571 0 24.571 18.286zM684 600.571q0 16.571-24 16.571h-46.857v-34.286h46.286q24.571 0 24.571 17.714zM946.286 561.143h50.857l-25.143 61.714zM399.429 649.714v-154.857h-37.714v121.143l-53.714-121.143h-32.571l-53.714 121.143v-121.143h-75.429l-14.286 34.286h-77.143l-14.286-34.286h-40l66.286 154.857h54.857l62.857-146.857v146.857h60.571l48.571-105.143 44 105.143h61.714zM717.143 332q0-11.429-3.143-20t-8-14.286-12.857-9.429-14.857-5.714-18-2.571-18-0.571-18.571 0.286-16.857 0.286v-52h-72l-45.714 51.429-47.429-51.429h-146.286v154.857h148.571l45.714-50.857 46.857 50.857h118.286q62.286 0 62.286-50.857zM550.857 526.857v-32h-124v154.857h124v-32.571h-86.857v-28h84.571v-31.429h-84.571v-30.857h86.857zM1316.571 207.428v-130.857q0-31.429-22-54t-53.429-22.571h-1165.714q-31.429 0-53.429 22.571t-22 54v387.429h63.429l14.286 34.857h31.429l14.286-34.857h124.571v26.286l10.857-26.286h64.571l11.429 26.857v-26.857h309.143v56.571l5.714 0.571q5.714 0 5.714-8v-49.143h159.429v13.143q13.143-6.857 31.429-10.286t30-3.714 36 0.286 29.429 0.571l14.286 34.857h32l14.286-34.857h129.714v33.143l19.429-33.143h104v216h-102.857v-25.143l-14.286 25.143h-105.714v-25.143l-13.143 25.143h-142.286q-39.429 0-62.286-12.571v12.571h-98.286v-12.571q-13.714 12.571-41.714 12.571h-358.857l-24.571-55.429-24.571 55.429h-113.143v-25.143l-12.571 25.143h-96.571l-44.571-102.286v223.429q0 31.429 22 54t53.429 22.571h1165.714q31.429 0 53.429-22.571t22-54v-387.429h-68.571q-29.143 0-46.286-12.571v12.571h-101.143q-31.429 0-44.571-12.571v12.571h-180.571v-12.571q-17.714 12.571-49.714 12.571h-119.429v-12.571q-13.143 12.571-52 12.571h-133.714l-30.857-33.143-28.571 33.143h-199.429v-216h196l31.429 33.714 29.714-33.714h120.571v50.857h12q33.714 0 51.429 7.429v-58.286h99.429v56.571h4.571q4.571 0 5.714-1.143t1.143-5.714v-49.714h302.286q32.571 0 50.286 13.714v-13.714h96q34.286 0 54.286 9.714zM883.429 341.143q0-13.143-6.857-24.571t-19.429-16.571q14.286-5.143 19.429-14.857t5.143-26.286v-30.857h-37.143v25.714q0 18.857-6.857 24.857t-26.286 6h-39.429v-56.571h-37.143v154.857h88q27.429 0 44-8.571t16.571-33.143zM725.143 608q0-13.714-7.143-25.143t-19.143-16.571q14.857-5.143 19.714-14.571t4.857-26.571v-30.286h-37.143q0 5.143 0.286 15.143t0 14.286-1.714 10.571-4.857 9.143-10 4.857-16.857 2h-40v-56h-36.571v154.857l87.429-0.571q28 0 44.571-8.286t16.571-32.857zM1027.429 260v-32h-123.429v154.857h123.429v-32h-86.286v-28h84.571v-31.429h-84.571v-30.857zM784 649.714v-154.857h-37.714v154.857h37.714zM1180 277.143q0-49.143-58.286-49.143h-72v33.143h72q19.429 0 19.429 14.286 0 9.143-9.714 12t-23.714 2.857-28.286 2-24 12.857-9.714 31.429q0 22.286 14.857 34.286t37.714 12h74.286v-32.571h-68q-20.571 0-20.571-14.286 0-9.143 10-11.714t24-2.286 28-1.429 24-12.286 10-31.143zM1316.571 305.714v-57.714q-13.714-20-50.286-20h-71.429v33.143h71.429q18.857 0 18.857 14.286 0 7.429-7.143 10.857t-17.714 3.143-22.857 1.143-22.857 4.571-17.714 13.714-7.143 27.714q0 22.286 15.143 34.286t38 12h73.714v-32.571h-67.429q-20.571 0-20.571-14.286 0-11.429 16.571-12.571t39.143-2.857 32.286-14.857zM1222.286 649.143v-154.286h-52.571l-69.714 116v-116h-75.429l-14.857 34.286h-76.571l-14.286-34.286h-42.857q-73.714 0-73.714 76 0 78.857 76 78.857h36v-33.714q-4 0-16 0.571t-16.286 0.286-13.143-1.143-12.286-3.714-8.286-7.714-6.571-13.143-1.714-19.143q0-21.714 7.714-33.143t28.286-11.429h16.571l52.571 121.714h55.429l62.286-146.286v146.286h56.571l65.143-107.429v107.429h37.714z" />
<glyph unicode="&#xf1f4;" glyph-name="paypal-payment" horiz-adv-x="1317" d="M184 466.857h-8.571q-10.857 0-10.857 10.286 0 16 10.857 48.571 2.857 8.571 8.571 11.143t16 2.571q44 0 44-28 0-23.429-17.429-34t-42.571-10.571zM379.429 374.857q-26.857 0-26.857 16.571 0 35.429 70.286 35.429l1.714-1.714q-2.857-50.286-45.143-50.286zM821.714 465.714h-8.571q-10.857 0-10.857 10.857 0 16 10.857 48.571 2.857 8.571 8.286 10.857t16.286 2.286q44 0 44-28 0-23.429-17.429-34t-42.571-10.571zM1017.143 374.286q-26.857 0-26.857 17.143 0 35.429 70.286 35.429l1.714-1.714q-2.857-50.857-45.143-50.857zM213.143 584h-73.143q-4.571 0-8.286-2.286t-4.857-4.286-4-7.143q-1.714-4-25.714-108.571t-24-109.714q0-4 3.143-7.143t7.714-3.143h35.429q14.286 0 18.571 19.714l8.571 39.429t18.571 19.714q26.857 0 50 4.286t46 14 36.286 30 13.429 48.286q0 20.571-8.286 34.857t-23.429 20.857-30.571 8.857-35.429 2.286zM410.857 529.143q-21.714 0-42.286-3.429-1.143 0-4.857-0.571t-5.143-0.857l-4.286-0.857t-4.286-1.143-3.714-1.714-3.714-2.286-2.857-2.857-2.571-4-2.286-5.143q-5.143-16.571-5.143-22.286t5.143-5.714q2.857 0 12.286 2.857t11.143 3.429q17.143 4.571 33.143 4.571 42.286 0 42.286-20.571 0-6.286-5.714-8-4.571-1.143-10.286-1.714t-12.286-0.857-10-0.857q-21.714-2.286-36.857-5.714t-32.286-11.143-26-22.286-8.857-35.714q0-21.714 14.857-34t36.571-12.286q13.714 0 26 3.714t18.857 7.429 22 13.429q-1.714-4-1.714-8.571t3.143-7.714 7.143-3.143h32q0.571 0.571 4 2t4.286 2 2.857 2 2.857 3.143 1.429 4.571l25.714 110.857q2.286 7.429 2.286 17.143 0 46.286-82.857 46.286zM712.571 526.286h-42.286q-12.571 0-22.286-13.143-2.857-4-16.857-29.143t-26.571-46.571-14.857-22l-2.857 2.286q0 44-15.429 94.857-0.571 2.857-2 4.857t-3.429 3.714-3.714 2.857-4.857 1.714-4.857 0.857-5.429 0.571-5.143 0.286h-10.571q-21.714 0-21.714-12l0.571-2.857q2.857-30.286 14.286-86.286t14.286-81.714q1.143-9.143 1.143-13.714 0-10.857-17.429-35.143t-17.429-33.429q0-7.429 22.857-7.429 34.857 0 43.429 14.286l140 237.143q5.714 11.429 5.714 14.857 0 5.143-4.571 5.143zM850.857 582.857h-73.714q-10.286 0-16.571-13.143-3.429-7.429-26.571-109.429t-23.143-108.857q0-11.429 24.571-11.429h14.571t5.429 0.571 4.857 1.143 4.857 1.714 3.714 2.571 3.143 3.429 1.714 4.857l12 52q1.143 5.714 6 9.714t11.143 4q26.857 0 50 4t46 14 36.286 30 13.429 48q0 20.571-8.286 34.857t-23.429 20.857-30.571 8.857-35.429 2.286zM1048.571 529.143q-14.857 0-42.286-3.429-21.714-3.429-27.429-9.143-4-4.571-6.286-10.857-4.571-13.714-4.571-22.286 0-5.714 4.571-5.714 0.571 0 23.429 6.857 17.143 4.571 33.143 4.571 42.286 0 42.286-20.571 0-6.857-5.714-8-2.286-0.571-32.571-4-21.714-2.286-36.857-5.714t-32.286-11.143-26-22.286-8.857-35.714 14.857-33.429 36.571-12.286q13.714 0 25.714 3.429t19.429 7.429 21.714 13.714q-1.714-8.571-1.714-9.143 0-2.857 1.143-4.857t3.714-3.143 4.571-2 6-1.143 5.429-0.286h10q24 0 27.429 14.286l25.714 110.857q1.714 8.571 1.714 17.714 0 46.286-82.857 46.286zM1232.571 581.143h-31.429q-14.286 0-18.857-22.857-5.714-25.143-20.857-95.429t-24.286-108.571v-2.857q0-9.143 9.143-10.286h33.143q5.714 0 10.571 3.714t6 9.429l47.429 213.714h-0.571l0.571 2.857q0 4-3.143 7.143t-7.714 3.143zM1316.571 804.571v-731.429q0-29.714-21.714-51.429t-51.429-21.714h-1170.286q-29.714 0-51.429 21.714t-21.714 51.429v731.429q0 29.714 21.714 51.429t51.429 21.714h1170.286q29.714 0 51.429-21.714t21.714-51.429z" />
</font>
</defs>
</svg>
